<svg width="325" height="50" viewBox="0 0 325 50" fill="none" xmlns="http://www.w3.org/2000/svg">
<g clip-path="url(#clip0_2536_107)">
<path d="M32.2609 0.317256C22.0452 11.6306 11.9132 23.935 2.03245 35.4961C1.4463 36.1567 1.1951 37.0651 0.692686 37.8083C-0.898287 41.6896 0.357744 46.314 3.37222 48.874C9.06623 48.9566 14.509 49.1217 20.4542 48.874C20.3705 48.3785 19.9518 48.0482 19.7006 47.6353C17.6072 44.5799 17.6072 40.2031 19.6169 37.1477C29.5814 24.9259 39.8809 13.0345 50.4315 0.895316C50.5153 0.812737 50.7665 0.482415 50.4315 0.317256C47.8357 0.399836 45.1562 0.317257 42.5604 0.234678C40.5507 0.234678 38.6248 0.1521 36.7826 0.1521C35.2754 0.234679 33.7682 0.234677 32.2609 0.317256ZM37.0339 23.3569C34.4381 29.3027 39.5459 33.6794 41.8068 38.469C43.2303 35.4135 46.2447 32.771 47.0821 29.3027C48.9243 24.1001 44.57 19.8886 41.9742 15.8422C40.2995 18.237 38.2899 20.7144 37.0339 23.3569ZM26.6507 32.2755H24.5573L24.3898 32.3581C24.1386 34.4226 24.3061 36.5696 25.2272 38.3864C27.3205 42.5154 31.7585 44.3321 36.364 43.8366C38.876 44.167 41.0532 45.9837 41.6393 48.3785C42.3929 47.0572 43.2303 45.1579 44.9887 44.4973C48.1707 43.176 52.4412 44.4147 55.1207 42.1851C58.4701 40.1206 60.1448 36.0742 59.3075 32.3581C58.4701 32.3581 57.4653 32.3581 56.6279 32.2755C53.3623 32.1929 50.0128 32.1104 47.5008 33.8445C44.6538 35.4135 42.8953 38.1387 41.8905 41.0289C40.9694 38.469 39.3784 35.8264 37.1176 34.34C34.773 32.5233 31.6748 32.2755 28.5766 32.2755H26.6507Z" fill="#885A40"/>
<path d="M43.3142 11.1352L43.2305 11.7133L56.6281 27.8163C59.2239 31.1195 62.2384 34.1749 64.583 37.6433C66.2577 41.1942 65.6716 45.8186 63.1595 48.8741L63.2432 49.1218H79.9066C80.9951 48.9566 81.4976 47.8005 82.2512 47.0573C84.0934 43.8367 84.1771 39.46 82.1674 36.322C72.4541 24.5131 62.4896 12.4565 52.6088 0.812803L52.1902 0.730225L43.3142 11.1352ZM214.386 16.9984C212.209 18.2371 210.115 20.3841 208.022 21.8706C204.924 25.1738 199.397 21.8706 196.466 25.4215C195.88 25.7518 195.378 27.2382 194.624 26.6602C194.624 25.3389 194.959 23.6873 193.452 23.1093C191.358 22.7789 188.93 23.0267 186.92 23.2744C185.999 23.357 185.078 23.6048 184.408 24.2654C183.404 25.9996 185.916 26.4125 186.083 27.9815C186.586 33.6794 186.585 39.1297 185.916 44.4974C185.581 45.6535 183.99 46.3967 184.492 47.8005C184.576 48.4612 185.329 48.6263 185.916 48.8741C188.26 48.9566 190.689 49.2044 193.201 49.0392C194.457 48.9567 195.964 49.0392 196.634 47.8831C197.471 46.4793 195.796 45.5709 195.378 44.3322C194.792 40.6161 195.378 36.1568 195.294 32.1104L195.629 31.2846C197.052 28.6421 200.402 28.9724 202.998 28.9724C203.919 29.2202 205.342 28.8898 205.928 29.8808C206.431 32.4407 206.096 35.331 206.012 37.7258C206.096 41.1116 204.84 44.8277 206.933 47.6354C209.948 49.7824 213.967 49.0392 217.484 48.7089C220.666 46.3967 215.642 45.3232 215.223 43.2587C214.888 38.4691 214.972 34.3401 215.307 29.3853C216.395 27.8989 218.489 29.055 219.745 27.8163C220.331 26.8253 220.163 25.5867 220.163 24.348C219.828 23.2744 218.907 23.2744 217.903 23.2744C217.149 23.2744 216.395 23.2744 215.893 22.8615C215.39 21.1274 216.228 19.3932 215.725 17.7416C215.642 17.1635 215.056 16.9158 214.386 16.9158C214.469 16.9984 214.386 16.9984 214.386 16.9984ZM100.087 31.6975C100.171 28.6421 101.427 25.9995 102.431 23.2744C102.599 22.6964 103.269 22.2009 103.939 22.0357C106.032 22.2009 105.781 24.5957 106.283 25.9995C106.451 27.8163 107.372 29.6331 107.288 31.4498C106.702 32.2756 105.362 32.0279 104.441 32.193C102.85 32.193 101.51 32.193 100.087 31.6975ZM122.444 16.4203C118.844 17.9893 123.533 19.9713 123.03 22.2009C123.616 28.3944 123.533 35.6613 123.282 41.6897C123.114 43.0109 123.198 44.4974 122.36 45.4883C122.025 45.7361 121.523 45.9838 121.021 45.8186C120.183 45.4883 119.848 44.4148 119.43 43.589C116.834 34.4227 114.657 25.0912 111.977 15.9249C111.642 15.2642 111.14 14.521 110.386 14.1907L107.288 13.7778C106.534 13.7778 105.697 13.6952 104.86 13.6952C102.766 13.6126 100.673 13.4475 98.9145 14.2733C98.3284 14.6862 98.3284 15.3468 98.4121 16.09C99.8356 17.659 98.4958 19.7235 98.1609 21.3751C95.8163 27.2382 93.8904 33.1014 91.3783 38.9645C90.541 41.8548 89.0337 44.4148 88.5313 47.3876C89.0337 49.6999 91.8807 49.1218 93.8067 49.3695C94.8952 49.287 96.3187 49.4521 96.9049 48.296C97.6585 46.4793 94.8115 45.7361 95.9 43.6716C96.7374 40.6161 97.5748 37.7258 98.7471 34.753L99.2495 34.6704L101.594 36.8175C102.766 37.3955 104.19 37.3955 105.613 37.3955C106.702 37.3955 107.707 37.3955 108.712 37.5607C109.549 38.8819 109.549 40.8639 110.051 42.4329C111.559 44.7451 108.544 46.1489 109.381 48.296C109.968 49.2044 111.307 49.2044 112.48 49.3695L126.882 49.287C129.227 49.2044 131.739 49.3695 133.665 48.5438C135.339 46.4793 131.906 45.4883 132.241 43.4238C131.823 34.5878 132.325 24.6783 132.576 15.1816L132.409 14.1907C132.074 13.3649 131.153 13.3649 130.483 13.2823C127.636 14.1081 125.04 15.4294 122.444 16.4203ZM223.094 23.8525C219.745 25.5867 220.08 29.4679 220.247 32.6885C220.582 36.0743 223.848 37.891 226.779 38.7994C229.039 39.8729 232.305 40.2032 233.226 42.8458C233.226 43.589 233.142 44.3322 232.473 44.8277C230.128 45.736 227.197 45.158 225.188 43.9193C223.094 43.0935 223.429 39.8729 220.75 40.2032C218.907 41.2768 219.745 44.2496 219.912 46.149C219.996 49.4521 223.764 48.7089 225.941 49.4521C230.212 49.6999 235.236 50.1128 238.418 47.2225C240.26 45.3231 240.762 42.1851 240.511 39.6252C239.841 33.0188 232.473 34.1749 228.621 30.7892C228.035 29.9634 227.448 28.9724 227.951 27.9815C228.788 26.5776 230.547 26.6602 231.97 26.6602C232.389 27.2382 233.226 26.9905 233.645 27.5686C234.733 28.9724 232.975 30.1285 232.891 31.5324C233.059 32.193 233.812 32.4407 234.482 32.6059C236.324 32.9362 237.329 31.3672 238.25 30.2111C239.171 28.6421 240.26 26.2473 239.004 24.5131L238.418 24.1002C235.989 23.0267 233.142 22.4486 230.463 22.4486C228.118 22.366 225.439 22.8615 223.094 23.8525ZM299.461 24.5957C296.865 27.2382 297.87 31.6975 298.456 34.8356C300.382 37.891 303.983 38.5516 307.081 39.6252C308.672 40.2858 310.933 40.5335 311.351 42.5154C311.268 43.2587 311.1 44.0845 310.263 44.4148C308.421 45.2406 306.076 44.8277 304.15 44.3322C302.14 43.7541 301.136 41.6897 299.796 40.3684C299.293 40.2858 298.958 40.2858 298.456 40.3684C296.698 41.4419 297.87 43.6716 297.535 45.4057L297.367 45.5709C296.698 45.2406 296.195 44.9102 295.693 44.3322C293.599 38.8819 292.595 33.0188 290.836 27.3208C290.501 25.8344 289.915 24.4305 288.91 23.1093C287.57 21.6228 284.975 22.1183 283.3 22.779C281.541 23.4396 279.951 24.6783 278.192 25.2563C277.522 24.926 277.857 24.0176 277.606 23.4396C276.35 22.0357 274.089 22.8615 272.331 22.8615C270.74 23.1918 269.065 23.1919 267.893 24.4305C266.888 25.9996 269.232 26.9905 269.316 28.5595C269.735 33.2665 269.902 38.9645 269.567 44.0019C269.232 45.158 267.976 45.9838 268.144 47.3051C268.395 48.7915 269.986 48.7915 271.242 49.0392C271.912 48.9567 272.666 49.0392 273.503 49.0392C275.847 49.1218 278.276 49.1218 279.867 47.718C280.453 46.3141 279.029 45.5709 278.527 44.4148C277.857 40.5335 277.941 36.1568 278.025 32.3582C277.941 31.4498 278.108 30.7066 278.611 30.046C279.029 29.5505 279.699 29.5505 280.369 29.5505H280.537C281.374 29.8808 282.044 30.624 282.379 31.3672C283.97 36.4046 285.058 41.9374 286.482 47.2225C286.817 48.1309 287.822 48.7089 288.743 49.0392C291.673 49.2044 294.52 49.3695 297.284 48.4612C297.786 48.296 297.87 47.6354 298.372 47.6354C300.801 49.5347 304.15 49.4521 307.248 49.4521C308.169 49.4521 309.174 49.3696 310.095 49.4521C312.189 49.2044 314.533 49.2044 316.208 47.8831C319.222 46.0664 319.725 42.6806 319.474 39.2949C318.887 34.0098 312.775 33.762 309.09 32.1104C307.834 31.4498 306.243 30.3763 306.495 28.8073C306.662 28.2292 306.662 27.5686 307.248 27.1557C308.253 26.3299 309.844 26.4125 311.016 26.7428C311.602 27.0731 311.854 27.7337 312.021 28.3944C312.272 29.6331 310.933 30.3763 311.184 31.7801C311.184 32.1104 311.602 32.3582 311.854 32.6059C313.445 33.184 314.868 32.3582 316.04 31.4498C317.464 29.8808 318.05 27.486 317.631 25.2563C316.124 22.779 313.11 22.8615 310.514 22.5312C309.928 22.5312 309.174 22.4486 308.504 22.4486C305.155 22.1183 301.805 22.5312 299.461 24.5957ZM252.653 44.4974C251.146 42.8458 250.811 40.6987 250.643 38.3865C250.643 34.9181 249.638 30.4588 251.397 27.1557C252.485 26.3299 254.662 26.1647 256.002 26.8253C258.012 29.1376 257.761 32.6059 258.179 35.4962C258.096 38.2213 259.017 41.4419 257.761 43.9193C257.509 44.2496 257.091 44.3322 256.923 44.7451V44.6625C256.253 44.7451 255.416 44.9928 254.579 44.9928C253.909 45.158 253.239 44.9928 252.653 44.4974ZM246.121 23.6047C242.437 25.8344 242.102 30.1285 241.851 34.1749C241.851 39.6252 241.683 46.6444 247.461 48.9567C251.899 50.2779 257.342 50.0302 261.864 48.8741C264.459 48.2134 266.302 45.4883 266.637 42.9283C266.971 37.5607 266.385 32.193 264.878 27.2382C264.292 25.4215 262.617 23.7699 260.691 23.2744C258.347 22.8615 255.667 22.4486 253.071 22.4486C250.643 22.366 248.215 22.6138 246.121 23.6047ZM145.555 44.7451C144.215 42.8458 144.718 40.1206 144.634 37.8084C144.802 35.4136 144.383 32.8536 145.22 30.2937C145.639 29.633 146.393 29.4679 147.146 29.3027C149.491 30.0459 149.491 32.6885 150.244 34.5878C150.663 37.4781 151.752 40.6161 150.83 43.5064C150.328 44.3322 149.491 44.9103 148.486 45.2406C148.235 45.3232 147.9 45.3232 147.649 45.3232C146.979 45.4057 146.225 45.158 145.555 44.7451ZM143.629 14.1907C140.782 15.3468 138.103 16.6681 135.507 18.4022C133.414 20.219 137.014 20.8796 136.595 22.6964C137.014 30.1285 137.014 37.3129 136.428 44.8277C136.009 45.6535 135.423 46.5618 135.423 47.6354C135.674 48.4612 136.428 48.7915 137.182 48.9567C141.452 49.287 146.141 49.287 150.579 49.0392C152.589 48.6263 154.682 48.7089 156.357 47.4702C160.293 44.0019 159.455 38.4691 158.785 33.9272C157.697 30.3763 157.111 26.3299 154.096 23.5222C150.998 21.4577 148.151 24.1002 145.471 25.0912L145.136 24.7609C145.22 21.4577 145.723 17.8242 145.22 14.6036C144.885 14.2733 144.467 14.1907 143.964 14.1907H143.629ZM171.597 45.158C170.257 44.0845 169.503 42.3503 169.755 40.6161C171.597 39.46 173.941 39.2948 176.035 38.6342C176.872 38.5516 177.961 38.7168 178.128 39.7077C178.379 41.9374 177.542 44.167 175.616 45.4057C174.946 45.5709 174.193 45.7361 173.523 45.7361C172.853 45.6535 172.267 45.4883 171.597 45.158ZM169.503 32.0279C169.755 30.1285 169.587 27.6511 171.597 26.7428C172.518 26.495 173.69 26.495 174.444 27.1557C175.616 29.055 176.035 31.6975 175.365 34.0923C174.36 35.6614 172.183 35.6614 170.425 35.8265C169.001 35.0007 169.587 33.2665 169.503 32.0279ZM162.972 26.4124C160.628 32.193 160.628 39.8729 162.47 45.7361C163.14 47.3876 164.982 48.1309 166.489 48.7915C170.508 49.6173 174.946 50.0302 178.631 48.296C181.31 46.8922 183.069 44.0845 182.901 41.1116C182.817 39.2123 180.891 38.7994 179.635 37.8084V37.5607C180.724 36.9826 182.231 36.8175 182.817 35.4962C183.655 32.193 182.734 28.8073 181.226 25.9995C180.305 24.6783 179.217 23.6873 177.71 23.1919C175.784 22.8615 173.523 22.5312 171.262 22.5312C167.996 22.6138 164.731 23.357 162.972 26.4124ZM320.813 20.6319H321.902C322.321 20.6319 322.907 20.7145 322.907 21.2099C322.907 21.8706 322.237 21.8706 321.734 21.8706H321.651H320.981L320.813 20.6319ZM321.986 20.219H320.395V23.9351H320.813V22.2009H321.651L322.739 23.9351H323.325L322.237 22.2009C322.907 22.2009 323.409 21.8706 323.409 21.1274C323.409 20.797 323.325 20.5493 322.991 20.3016C322.656 20.219 322.321 20.219 321.986 20.219C322.069 20.219 322.069 20.219 321.986 20.219ZM318.72 22.1183C318.72 20.5493 320.06 19.228 321.651 19.1454C323.242 19.1454 324.665 20.4667 324.665 22.0357C324.665 23.6047 323.325 25.0086 321.734 25.0086C319.976 25.0912 318.72 23.7699 318.72 22.1183ZM321.651 18.7326C319.809 18.7326 318.301 20.3016 318.301 22.0357C318.301 23.8525 319.892 25.3389 321.651 25.3389C323.493 25.3389 325 23.7699 325 22.0357C325 20.219 323.493 18.7326 321.651 18.7326Z" fill="#885A40"/>
</g>
<defs>
<clipPath id="clip0_2536_107">
<rect width="325" height="50" fill="white"/>
</clipPath>
</defs>
</svg>
