<svg width="205" height="62" viewBox="0 0 205 62" fill="none" xmlns="http://www.w3.org/2000/svg">
<g clip-path="url(#clip0_2536_194)">
<path fill-rule="evenodd" clip-rule="evenodd" d="M127.115 48.3503C115.287 57.0976 98.0958 61.8077 83.2986 61.8077C62.5634 61.8077 43.8873 54.1178 29.7606 41.3333C28.6592 40.324 29.6648 38.9782 30.9577 39.7472C46.1859 48.6387 65.0535 54.0216 84.4958 54.0216C97.6169 54.0216 112.079 51.2821 125.344 45.6588C127.403 44.6976 129.079 46.8604 127.115 48.3503Z" fill="#885A40"/>
<path fill-rule="evenodd" clip-rule="evenodd" d="M132.045 42.679C130.513 40.7565 122.037 41.7658 118.206 42.1984C117.057 42.3426 116.865 41.3333 117.919 40.6123C124.671 35.8061 135.781 37.1999 137.121 38.8341C138.414 40.4682 136.786 51.6185 130.417 56.9534C129.46 57.7705 128.502 57.3379 128.933 56.2325C130.321 52.6278 133.53 44.6015 132.045 42.679Z" fill="#885A40"/>
<path fill-rule="evenodd" clip-rule="evenodd" d="M118.447 6.82483V2.16282C118.447 1.53802 118.926 1.00934 119.549 1.00934H119.597H140.332C141.002 1.00934 141.529 1.48995 141.529 2.16282V6.15197C141.529 6.82484 140.954 7.68995 139.949 9.08375L129.222 24.4636C133.197 24.3675 137.411 24.9442 141.05 27.0109C141.864 27.4915 142.104 28.1644 142.152 28.8372V33.7876C142.152 34.4605 141.385 35.2775 140.619 34.845C134.25 31.4806 125.774 31.1442 118.687 34.8931C117.968 35.2776 117.202 34.5086 117.202 33.8357V29.1256C117.202 28.3566 117.202 27.0589 117.968 25.9055L130.419 7.97833H119.597C119.022 8.02639 118.447 7.54577 118.447 6.82483ZM42.7854 35.8543H36.4642C35.8896 35.8062 35.4107 35.3737 35.3149 34.7969V2.30701C35.3149 1.63414 35.8417 1.15352 36.5121 1.15352H42.4023C43.0248 1.20158 43.5037 1.63414 43.5516 2.25894V6.4884H43.6473C45.1797 2.40313 48.053 0.480651 51.9318 0.480651C55.8586 0.480651 58.3488 2.40313 60.1206 6.4884C61.653 2.40313 65.1009 0.480651 68.8361 0.480651C71.4699 0.480651 74.391 1.58607 76.1628 4.03724C78.1741 6.77677 77.7431 10.7659 77.7431 14.2264V34.7489C77.7431 35.4217 77.1685 35.9504 76.5459 35.9024H70.2248C69.6023 35.8543 69.1234 35.3737 69.0755 34.7489V17.5427C69.0755 16.1489 69.2192 12.7365 68.884 11.4388C68.4051 9.276 67.0164 8.65119 65.1966 8.65119C63.6642 8.65119 62.084 9.6605 61.4135 11.2946C60.791 12.9287 60.8389 15.6682 60.8389 17.5427V34.7489C60.8389 35.4217 60.2642 35.9504 59.6417 35.9024H53.3206C52.6981 35.8543 52.1713 35.3737 52.1713 34.7489V17.5427C52.1713 13.938 52.7459 8.60313 48.2924 8.60313C43.7431 8.60313 43.9347 13.7938 43.9347 17.5427V34.7489C44.0304 35.3256 43.4558 35.8543 42.7854 35.8543ZM159.439 0.432586C168.825 0.432586 173.853 8.50701 173.853 18.7442C173.853 28.645 168.25 36.5272 159.439 36.5272C150.245 36.5272 145.216 28.4527 145.216 18.4078C145.216 8.2667 150.292 0.432586 159.439 0.432586ZM159.487 7.06514C154.842 7.06514 154.554 13.4093 154.554 17.3985C154.554 21.3876 154.506 29.8465 159.439 29.8465C164.323 29.8465 164.563 23.0217 164.563 18.8403C164.563 16.1008 164.467 12.8326 163.605 10.2372C162.887 7.93026 161.498 7.06514 159.487 7.06514ZM186.016 35.8543H179.743C179.121 35.8062 178.642 35.3256 178.594 34.7008V2.21089C178.642 1.58608 179.168 1.15352 179.791 1.15352H185.633C186.16 1.15352 186.639 1.53802 186.783 2.0667V7.01709H186.878C188.65 2.59538 191.14 0.432586 195.498 0.432586C198.323 0.432586 201.101 1.44189 202.873 4.27755C204.501 6.8729 204.501 11.2465 204.501 14.4186V34.8931C204.405 35.4698 203.878 35.9024 203.304 35.9024H196.983C196.408 35.8543 195.929 35.4217 195.881 34.8931V17.2543C195.881 13.6977 196.312 8.50701 191.907 8.50701C190.374 8.50701 188.937 9.56437 188.267 11.1024C187.357 13.0729 187.261 15.0434 187.261 17.2543V34.7489C187.214 35.3256 186.687 35.8543 186.016 35.8543ZM101.926 20.3303C101.926 22.7814 101.974 24.8481 100.729 27.0589C99.7234 28.8372 98.1431 29.9427 96.3713 29.9427C93.929 29.9427 92.5403 28.0682 92.5403 25.3768C92.5403 19.9938 97.3769 18.9845 101.926 18.9845V20.3303ZM108.295 35.7582C107.864 36.0946 107.29 36.1907 106.811 35.9024C104.704 34.1721 104.321 33.3551 103.171 31.6729C99.7234 35.2295 97.2333 36.2868 92.7797 36.2868C87.4643 36.2868 83.3459 33.0186 83.3459 26.4341C83.3459 21.2915 86.1234 17.783 90.0981 16.1008C93.5459 14.5628 98.2868 14.3225 101.974 13.8899V13.0729C101.974 11.583 102.07 9.80468 101.208 8.45895C100.442 7.30546 98.9572 6.82483 97.6642 6.82483C95.2699 6.82483 93.1149 8.07445 92.5882 10.6217C92.4924 11.1985 92.0614 11.7752 91.4868 11.7752L85.3572 11.1024C84.8304 11.0062 84.2558 10.5737 84.3995 9.75662C85.7882 2.30701 92.4924 0.0480957 98.5262 0.0480957C101.591 0.0480957 105.614 0.865145 108.056 3.22018C111.121 6.1039 110.833 9.94886 110.833 14.1303V24.031C110.833 27.0109 112.078 28.3086 113.228 29.8946C113.611 30.4713 113.706 31.1442 113.18 31.5768C111.504 32.9706 109.923 34.3644 108.295 35.7582ZM19.2248 20.3303C19.2248 22.7814 19.2727 24.8481 18.0276 27.0589C17.022 28.8372 15.4417 29.9427 13.6699 29.9427C11.2276 29.9427 9.8389 28.0682 9.8389 25.3768C9.8389 19.9938 14.6755 18.9845 19.2248 18.9845V20.3303ZM25.5938 35.7582C25.1628 36.0946 24.5882 36.1907 24.1093 35.9024C22.0023 34.1721 21.6192 33.3551 20.4699 31.6729C17.022 35.2295 14.5797 36.2868 10.0783 36.2868C4.76284 36.2868 0.644531 33.0186 0.644531 26.4341C0.644531 21.2915 3.422 17.783 7.39664 16.1008C10.8445 14.5628 15.5854 14.3225 19.2727 13.8899V13.0729C19.2727 11.583 19.3685 9.80468 18.5065 8.45895C17.7403 7.30546 16.2558 6.82483 14.9628 6.82483C12.5685 6.82483 10.4135 8.07445 9.88678 10.6217C9.79101 11.1985 9.36002 11.7752 8.78538 11.7752L2.6558 11.1024C2.12904 11.0062 1.55439 10.5737 1.69805 9.75662C3.08678 2.30701 9.79101 0.0480957 15.8248 0.0480957C18.8896 0.0480957 22.9121 0.865145 25.3065 3.22018C28.3713 6.1039 28.084 9.94886 28.084 14.1303V24.031C28.084 27.0109 29.329 28.3086 30.4783 29.8946C30.9093 30.4713 30.9572 31.1442 30.4783 31.5768C28.8023 32.9706 27.1741 34.3644 25.5938 35.7582Z" fill="#885A40"/>
</g>
<defs>
<clipPath id="clip0_2536_194">
<rect width="204" height="62" fill="white" transform="translate(0.5)"/>
</clipPath>
</defs>
</svg>
