<svg width="253" height="66" viewBox="0 0 253 66" fill="none" xmlns="http://www.w3.org/2000/svg">
<g clip-path="url(#clip0_2536_112)">
<path d="M102.338 22.7768C96.4413 22.7768 92.2622 27.4167 92.2622 33.007C92.2622 38.5974 96.3339 43.2373 102.338 43.2373C106.41 43.2373 109.408 41.1321 111.34 38.175L118.732 42.9204C115.304 48.4052 109.408 51.8833 102.23 51.8833C91.0886 51.8833 82.8377 43.6597 82.8377 33.0141C82.8377 22.3685 91.0886 14.1449 102.23 14.1449C109.408 14.1449 115.519 17.5174 118.84 23.1077L111.34 27.9588C109.193 24.7975 106.302 22.7909 102.338 22.7909M19.6146 22.7909C13.718 22.7909 9.53893 27.4308 9.53893 33.0211C9.53893 38.6115 13.6107 43.2513 19.6146 43.2513C23.6863 43.2513 26.6847 41.1461 28.6168 38.189L36.0089 42.9345C32.5812 48.4192 26.6847 51.8974 19.5072 51.8974C8.25086 51.8692 0 43.6456 0 33C0 22.3544 8.25086 14.1308 19.3927 14.1308C26.5702 14.1308 32.6814 17.5033 36.0018 23.0937L28.5023 27.9447C26.5702 24.7834 23.6792 22.7768 19.6074 22.7768M80.7983 26.8886C80.7983 32.2678 77.6926 35.8515 73.9428 37.323L83.3744 51.2426H72.1252L62.1569 35.9571V51.2426H52.618V14.7574H64.5112C75.0162 14.7574 80.7983 18.8692 80.7983 26.8816M229.106 32.2607L242.18 14.7574H228.677L216.569 31.5214V14.7574H204.783V51.1299H216.569V34.4715L237.572 61.0433C232.427 64.2046 226.215 66 219.46 66C200.389 66 185.92 51.7636 185.92 33C185.92 14.2364 200.389 0 219.46 0C238.531 0 253 14.2364 253 33C253 40.9068 250.431 47.863 246.145 53.4534L229.106 32.2607ZM146.698 14.7574H171.021V22.981H156.23V28.9938H170.377V36.5837H156.23V42.6951H171.021V51.0243H146.698V14.7574ZM130.84 42.9063H143.699V51.2355H121.194V14.7574H130.84V42.9134V42.9063ZM64.8333 33.521C68.583 33.521 71.2593 31.7256 71.2593 27.9307C71.2593 24.1357 68.6903 22.5515 64.8333 22.5515H62.1569V33.514H64.8333V33.521ZM38.7926 14.7574H48.2242V51.1299H38.6853V14.7574H38.7926Z" fill="#885A40"/>
</g>
<defs>
<clipPath id="clip0_2536_112">
<rect width="253" height="66" fill="white"/>
</clipPath>
</defs>
</svg>
