<svg width="249" height="94" viewBox="0 0 249 94" fill="none" xmlns="http://www.w3.org/2000/svg">
<g clip-path="url(#clip0_2536_134)">
<path d="M34.5836 39.222C34.8021 39.9386 35.0906 40.5067 35.1256 41.0835C35.1955 42.3332 35.1518 43.6004 35.1431 44.8501C35.1256 46.3096 34.8896 46.5368 33.4559 46.5368C31.5851 46.5368 29.7143 46.5368 27.8435 46.5368C27.0742 46.5368 26.6458 46.8601 26.6633 47.6991C26.6895 49.246 26.6982 50.8016 26.6633 52.3484C26.6458 53.1175 26.978 53.3797 27.7123 53.3797C29.6705 53.3622 31.6288 53.3797 33.587 53.3884C34.6972 53.3971 35.1256 53.8079 35.1343 54.9178C35.1518 56.2636 35.1431 57.6095 35.1343 58.9553C35.1256 60.0652 34.706 60.5022 33.6045 60.5197C31.7074 60.5372 29.8017 60.5197 27.9046 60.5372C26.8731 60.5372 26.6808 60.7382 26.672 61.7694C26.6633 63.526 26.6982 65.2826 26.6633 67.0305C26.6283 68.4899 26.8381 68.8308 28.4991 68.8657C30.1951 68.9007 31.891 68.8482 33.587 68.8745C34.7147 68.8919 35.1168 69.2939 35.1343 70.4213C35.1606 71.706 35.1518 72.9907 35.1431 74.2841C35.1343 75.3678 34.6185 75.9358 33.5345 75.9358C28.91 75.9533 24.2942 75.9533 19.6696 75.9358C18.5594 75.9358 18.0436 75.3415 18.0436 74.2054C18.0436 73.4189 18.0523 72.6236 18.0523 71.8371C18.0523 63.0628 18.0523 54.2973 18.0698 45.523C18.0698 44.8326 17.8425 44.4918 17.1344 44.7103C15.4472 45.2521 13.7513 45.7939 12.0815 46.3707C10.403 46.9563 8.74206 47.5855 7.08107 48.1973C5.14033 48.9139 3.20834 49.6392 1.2676 50.3471C0.358424 50.688 0 51.2385 0 52.261C0.0437103 63.8406 0.0349682 75.4202 0.0437103 86.991C0.0437103 88.9486 0.0611944 90.9063 0.0262262 92.8639C0.0174841 93.6504 0.323456 94.0175 1.1015 93.9912C1.33753 93.9912 1.57357 93.9912 1.80086 93.9912C17.0645 93.9912 32.3369 93.9912 47.6005 93.9912C114.25 93.9912 180.899 93.9912 247.549 93.9912C248.974 93.9912 248.983 93.9737 248.983 92.5929C248.983 70.1417 248.983 47.6816 248.983 25.2303C248.983 24.2078 248.983 23.1853 249 22.1629C249.017 21.4113 248.677 21.0355 247.925 20.9568C246.797 20.8432 245.669 20.6684 244.542 20.5461C239.288 20.013 234.034 19.4449 228.762 18.973C224.601 18.606 220.431 18.3263 216.27 18.0903C212.275 17.8544 208.271 17.6359 204.267 17.5485C197.483 17.4087 190.699 17.2688 183.915 17.3388C175.086 17.4261 166.265 17.6796 157.436 17.9243C154.166 18.0117 150.897 18.2039 147.636 18.4749C142.662 18.8856 137.696 19.4012 132.722 19.8644C130.16 20.1004 127.599 20.2664 125.038 20.5461C122.433 20.8257 119.836 21.2015 117.231 21.5424C115.701 21.7434 114.171 21.9531 112.641 22.1716C110.91 22.425 109.188 22.6959 107.457 22.9494C105.84 23.1853 104.214 23.3514 102.606 23.6223C100.193 24.0243 97.7886 24.4962 95.3758 24.9245C92.1325 25.5013 88.8892 26.0169 85.6547 26.6374C82.7086 27.1967 79.78 27.8521 76.8514 28.4814C73.8354 29.1281 70.8194 29.7923 67.8034 30.4565C67.0079 30.6312 66.2211 30.8322 65.4343 31.007C63.6159 31.4178 61.7889 31.8023 59.9793 32.2393C57.7151 32.7899 55.4596 33.3929 53.2042 33.9784C50.8963 34.5814 48.5884 35.1669 46.2892 35.7962C44.1561 36.373 42.0318 36.9847 39.9075 37.6052C38.1329 38.1296 36.3582 38.6801 34.5748 39.222H34.5836ZM124.609 0.00870204C83.5216 0.00870204 42.4339 0.00870204 1.33753 0.00870204C0.122389 0.00870204 0.0699365 0.0611379 0.0524523 1.29338C0.0524523 1.49438 0.0524523 1.70413 0.0524523 1.90513C0.0524523 13.9829 0.0349682 26.0518 0.0262262 38.1296C0.0262262 39.4929 0.25352 39.7114 1.56483 39.3006C3.75908 38.6015 5.92712 37.8237 8.10389 37.1071C9.51136 36.6439 10.9276 36.2157 12.3438 35.7874C14.1009 35.2543 15.8581 34.7387 17.6065 34.2056C19.6347 33.5851 21.6628 32.9384 23.6997 32.3354C25.2908 31.8635 26.8993 31.4527 28.4904 31.0158C29.9765 30.6138 31.4627 30.1943 32.9576 29.801C34.5836 29.3728 36.2183 28.9708 37.8531 28.56C39.5403 28.1318 41.2275 27.6948 42.9148 27.2666C44.7768 26.7947 46.6301 26.3228 48.5009 25.8683C49.515 25.6236 50.5466 25.4226 51.5694 25.2129C52.566 25.0031 53.5626 24.8109 54.5592 24.6011C56.7447 24.1292 58.9302 23.6223 61.1157 23.1679C62.969 22.7833 64.8398 22.4687 66.6932 22.0929C68.8612 21.656 71.0205 21.1403 73.1972 20.7296C75.5489 20.2926 77.9092 19.9343 80.2696 19.5498C81.3623 19.375 82.4551 19.209 83.5478 19.0342C86.2491 18.5972 88.9504 18.1166 91.6605 17.7233C94.6328 17.2951 97.6138 16.9367 100.595 16.5522C104.127 16.0978 107.65 15.6171 111.19 15.2238C113.979 14.918 116.776 14.7344 119.565 14.4723C122.328 14.2101 125.081 13.8692 127.853 13.6682C131.349 13.4148 134.846 13.2313 138.352 13.074C145.477 12.7506 152.601 12.2787 159.726 12.2C168.022 12.1039 176.327 12.3573 184.632 12.4797C187.29 12.5147 189.956 12.5147 192.614 12.6807C199.258 13.1002 205.902 13.5808 212.537 14.0877C216.934 14.4286 221.323 14.8218 225.711 15.2501C227.914 15.4685 230.1 15.8356 232.303 16.0978C234.243 16.3337 236.193 16.491 238.134 16.727C239.375 16.8756 240.608 17.1028 241.849 17.2863C243.895 17.5922 245.94 17.8981 247.986 18.2039C248.738 18.3176 249.017 18.0029 249.009 17.2251C248.974 13.8605 248.991 10.5046 248.991 7.13998C248.991 5.06002 248.974 2.98881 248.991 0.908851C248.991 0.253403 248.781 -0.0612124 248.065 -0.00877658C247.4 0.0436593 246.718 -0.00877658 246.045 -0.00877658C205.569 -0.00877658 165.094 -0.00877658 124.618 -0.00877658L124.609 0.00870204Z" fill="white"/>
<path d="M34.5827 39.2219C36.366 38.6801 38.1319 38.1207 39.9153 37.6051C42.0396 36.9846 44.1639 36.3729 46.297 35.7961C48.5962 35.1669 50.9041 34.5813 53.212 33.9783C55.4674 33.3928 57.7229 32.7985 59.9871 32.2392C61.7967 31.7935 63.6238 31.4177 65.4421 31.0069C66.2376 30.8234 67.0244 30.6312 67.8112 30.4564C70.8272 29.7922 73.8345 29.128 76.8592 28.4813C79.7878 27.8521 82.7252 27.1966 85.6625 26.6373C88.897 26.0168 92.1404 25.5012 95.3837 24.9244C97.7965 24.4962 100.192 24.0242 102.613 23.6222C104.222 23.3513 105.848 23.1765 107.465 22.9493C109.196 22.7046 110.918 22.4249 112.649 22.1715C114.179 21.953 115.709 21.7433 117.239 21.5423C119.835 21.2014 122.44 20.8256 125.045 20.546C127.598 20.2663 130.168 20.1003 132.73 19.8643C137.704 19.4011 142.669 18.8855 147.644 18.4748C150.904 18.2039 154.174 18.0203 157.444 17.9242C166.264 17.6795 175.094 17.4261 183.923 17.3387C190.707 17.2688 197.491 17.4086 204.275 17.5484C208.279 17.6271 212.274 17.8543 216.278 18.0902C220.448 18.3349 224.617 18.6059 228.77 18.9729C234.033 19.4361 239.287 20.0129 244.549 20.546C245.677 20.6596 246.805 20.8344 247.933 20.9567C248.684 21.0354 249.025 21.4112 249.008 22.1628C248.99 23.1853 248.99 24.2078 248.99 25.2303C248.99 47.6815 248.99 70.1416 248.99 92.5928C248.99 93.9737 248.973 93.9911 247.557 93.9911C180.907 93.9911 114.258 93.9911 47.6083 93.9911C32.3447 93.9911 17.0723 93.9911 1.80868 93.9911C1.57264 93.9911 1.33661 93.9911 1.10931 93.9911C0.331269 94.0086 0.0252966 93.6416 0.0340387 92.8638C0.0690069 90.9062 0.0515228 88.9486 0.0515228 86.991C0.0515228 75.4114 0.0515228 63.8318 0.0078125 52.2609C0.0078125 51.2384 0.366237 50.6879 1.25793 50.3645C3.19866 49.6479 5.1394 48.9313 7.07139 48.2146C8.74113 47.6029 10.4021 46.9649 12.0719 46.3881C13.7503 45.8026 15.4375 45.2608 17.1248 44.7277C17.8329 44.5004 18.0602 44.8413 18.0602 45.5404C18.0427 54.3147 18.0427 63.0802 18.0427 71.8545C18.0427 72.641 18.0339 73.4363 18.0339 74.2228C18.0339 75.3589 18.5497 75.9532 19.66 75.9532C24.2845 75.9794 28.9003 75.9794 33.5249 75.9532C34.6176 75.9532 35.1247 75.3764 35.1334 74.3015C35.1421 73.0168 35.1509 71.7321 35.1247 70.4387C35.0984 69.3113 34.6963 68.9006 33.5773 68.8918C31.8814 68.8656 30.1854 68.9181 28.4894 68.8831C26.8284 68.8481 26.6186 68.5073 26.6536 67.0478C26.6886 65.2912 26.6536 63.5434 26.6623 61.7868C26.6623 60.7555 26.8634 60.5545 27.895 60.5545C29.792 60.5458 31.6978 60.5545 33.5948 60.5371C34.6963 60.5283 35.1159 60.0826 35.1247 58.9727C35.1421 57.6269 35.1421 56.281 35.1247 54.9352C35.1072 53.8253 34.6876 53.4145 33.5773 53.4058C31.6191 53.3883 29.6609 53.3796 27.7026 53.397C26.9683 53.397 26.6361 53.1349 26.6536 52.3658C26.6886 50.819 26.6798 49.2634 26.6536 47.7165C26.6361 46.8775 27.0732 46.5542 27.8338 46.5542C29.7046 46.5542 31.5754 46.5542 33.4462 46.5542C34.8799 46.5542 35.1159 46.3357 35.1334 44.8675C35.1509 43.609 35.1946 42.3506 35.1159 41.1008C35.0809 40.524 34.7925 39.9647 34.5739 39.2394L34.5827 39.2219ZM96.7736 57.8017C96.7736 63.1239 96.7736 68.4461 96.7736 73.7596C96.7736 75.7784 96.9922 75.9882 99.0553 75.9707C100.428 75.9619 101.8 75.9619 103.182 75.9532C105.192 75.9532 105.367 75.7784 105.367 73.7334C105.367 71.0767 105.358 68.4112 105.367 65.7544C105.367 65.2475 105.437 64.7057 106.128 64.6882C106.775 64.662 107.535 64.4348 107.876 65.2825C109.082 68.3063 110.28 71.3389 111.443 74.3714C111.976 75.7522 112.16 75.9445 113.681 75.9619C115.613 75.9794 117.545 75.9619 119.468 75.9445C120.692 75.927 120.989 75.3852 120.5 74.2316C118.839 70.3513 117.204 66.4623 115.499 62.6083C115.211 61.9616 115.316 61.6295 115.796 61.2013C117.658 59.5408 118.725 57.3909 119.066 54.9789C119.319 53.231 119.206 51.422 119.171 49.6479C119.11 46.9649 118.008 44.6752 116.225 42.7264C114.013 40.3143 111.119 39.4491 107.963 39.3792C104.834 39.3093 101.704 39.3442 98.5745 39.3792C97.1233 39.3879 96.7911 39.7725 96.7911 41.2319C96.7911 46.7552 96.7911 52.2784 96.7911 57.8104L96.7736 57.8017ZM53.5617 64.8455C53.8676 65.2738 54.0337 65.4486 54.1211 65.6496C55.3887 68.4898 56.6301 71.3389 57.9152 74.1704C58.2387 74.887 58.4485 75.8571 59.4451 75.892C61.6393 75.9619 63.8336 75.9619 66.0191 75.9095C66.6485 75.892 67.0419 75.4725 66.6485 74.7472C66.5349 74.5462 66.4999 74.3015 66.395 74.0917C63.956 69.0317 61.5082 63.9891 59.0954 58.9203C58.8244 58.3522 58.4397 57.5482 58.6408 57.0763C59.9171 54.0787 61.3508 51.151 62.7233 48.1972C63.8773 45.7152 65.0312 43.242 66.1502 40.7425C66.5261 39.9123 66.2726 39.5103 65.3634 39.4928C63.379 39.4579 61.3858 39.4753 59.4013 39.4928C58.632 39.4928 58.0988 39.8773 57.7841 40.6114C56.8224 42.8924 55.8346 45.1559 54.8467 47.4194C54.5058 48.2059 54.1211 48.975 53.6578 49.945C53.3431 49.3595 53.1071 48.9924 52.9322 48.6079C51.7608 45.9512 50.5806 43.2944 49.4441 40.6114C49.1207 39.8511 48.5962 39.5015 47.8356 39.4928C45.8162 39.4666 43.7968 39.4579 41.7861 39.4928C40.9644 39.5103 40.7545 39.8861 41.0867 40.6551C41.7511 42.1758 42.4592 43.6702 43.1586 45.1734C44.8196 48.7303 46.4981 52.2872 48.1241 55.8615C48.4126 56.4908 48.8235 57.3647 48.5962 57.8716C46.9701 61.5071 45.2043 65.0815 43.4821 68.6821C42.5641 70.596 41.6287 72.5099 40.7371 74.4413C40.2562 75.49 40.5272 75.9095 41.6987 75.9357C43.6307 75.9707 45.5627 75.9619 47.4859 75.9357C48.1328 75.9357 48.6399 75.6648 48.9284 75.0006C49.89 72.8158 50.8778 70.6484 51.8657 68.4811C52.3902 67.3275 52.9235 66.1827 53.5442 64.8281L53.5617 64.8455ZM145.948 75.9445C146.883 75.9445 147.819 75.9969 148.754 75.927C149.751 75.8483 149.987 75.3677 149.733 74.4326C149.112 72.1341 148.527 69.8182 147.958 67.511C147.381 65.1339 146.866 62.7394 146.28 60.371C145.519 57.2948 144.706 54.2273 143.937 51.1423C143.08 47.699 142.241 44.2557 141.393 40.8037C141.14 39.755 140.729 39.3879 139.645 39.3617C138.246 39.3355 136.838 39.3617 135.431 39.3617C134.583 39.3617 134.041 39.8074 133.831 40.594C133.578 41.5203 133.394 42.4642 133.176 43.3993C132.8 45.0423 132.424 46.6853 132.022 48.3195C131.576 50.1548 131.086 51.9813 130.632 53.8165C130.229 55.4246 129.845 57.0413 129.451 58.6494C128.997 60.4846 128.551 62.3199 128.088 64.1551C127.677 65.7894 127.266 67.4236 126.864 69.0666C126.409 70.9281 125.928 72.7896 125.526 74.6685C125.316 75.6386 125.605 75.927 126.637 75.9445C128.271 75.9707 129.915 75.9794 131.55 75.9619C132.975 75.9445 133.447 75.4988 133.726 74.1005C133.884 73.2702 134.059 72.44 134.338 71.6535C134.434 71.3913 134.872 71.0854 135.16 71.0767C136.795 71.0242 138.438 71.0242 140.073 71.0767C140.353 71.0854 140.781 71.4 140.877 71.6622C141.218 72.6148 141.55 73.6023 141.69 74.5986C141.839 75.6386 142.486 75.892 143.316 75.9445C144.191 75.9969 145.074 75.9532 145.948 75.9532V75.9445ZM76.9991 61.3149C76.9991 61.3149 76.9991 61.3149 77.0078 61.3149C77.0078 65.7544 77.0253 70.2027 76.9991 74.6423C76.9991 75.5425 77.3663 75.9445 78.2317 75.9445C79.6392 75.9445 81.0379 75.9445 82.4454 75.9619C84.9019 75.9794 85.0068 75.8483 84.9981 73.4188C84.9806 64.9417 84.9806 56.4645 84.9806 47.9874C84.9806 46.9474 85.2254 46.7027 86.2832 46.6765C87.3934 46.659 88.5037 46.694 89.6139 46.6765C90.899 46.659 91.2836 46.2745 91.2924 45.0073C91.2924 43.6352 91.2924 42.2632 91.2924 40.8824C91.2924 39.7637 90.8728 39.353 89.7713 39.353C87.5245 39.353 85.2691 39.353 83.0224 39.353C79.543 39.353 76.0637 39.353 72.5844 39.353C70.9234 39.353 70.5999 39.6763 70.5912 41.363C70.5912 42.5865 70.5737 43.8188 70.5912 45.0423C70.6087 46.2221 70.9846 46.6153 72.1648 46.6503C73.1613 46.6765 74.1492 46.6503 75.1458 46.6503C76.8855 46.6678 76.9991 46.7901 76.9991 48.4943C76.9991 52.7591 76.9991 57.0326 76.9991 61.2974V61.3149ZM157.059 52.1386C157.059 55.8528 157.059 59.567 157.059 63.2725C157.059 64.3561 157.094 64.3911 158.204 64.3998C159.113 64.3998 160.022 64.3561 160.923 64.3998C161.745 64.4435 161.981 64.0852 161.972 63.3074C161.937 61.2886 161.946 59.2786 161.972 57.2598C161.972 56.9802 162.164 56.7092 162.269 56.4383C162.523 56.6481 162.872 56.8054 163.012 57.0763C163.292 57.6094 163.476 58.2037 163.668 58.7805C164.21 60.406 164.699 62.049 165.285 63.6657C165.399 63.9629 165.853 64.2688 166.186 64.3037C166.404 64.3299 166.806 63.9367 166.911 63.6483C167.488 62.1276 167.978 60.572 168.528 59.0426C168.808 58.2561 169.14 57.4783 169.481 56.7092C169.543 56.5694 169.77 56.4471 169.936 56.4208C170.006 56.4121 170.163 56.6656 170.198 56.8141C170.251 57.0413 170.242 57.2773 170.242 57.5133C170.242 59.4097 170.286 61.3149 170.233 63.2113C170.207 64.0677 170.434 64.4698 171.352 64.3824C171.964 64.3212 172.576 64.4086 173.197 64.3824C175.417 64.3124 175.435 64.8193 175.452 62.1451C175.478 55.5644 175.452 48.9924 175.452 42.4117C175.452 39.554 175.426 39.5452 172.576 39.7462C171.947 39.7899 171.597 40.1046 171.396 40.6114C171.011 41.5902 170.688 42.5865 170.329 43.5741C169.149 46.8338 167.978 50.0936 166.78 53.3534C166.675 53.6417 166.395 53.8602 166.194 54.1049C165.967 53.8165 165.661 53.5718 165.539 53.2485C165.102 52.1124 164.734 50.95 164.315 49.8052C163.371 47.2358 162.409 44.684 161.465 42.1146C160.46 39.3617 161.124 39.7987 158.265 39.7812C157.129 39.7812 157.076 39.8424 157.076 40.9785C157.076 44.6927 157.076 48.4069 157.076 52.1124L157.059 52.1386ZM219.503 52.1036C219.503 55.8703 219.503 59.6457 219.503 63.4123C219.503 64.0328 219.643 64.4261 220.369 64.4261C223.525 64.4086 226.689 64.4086 229.845 64.4173C230.396 64.4173 230.641 64.1726 230.632 63.622C230.615 62.7743 230.597 61.9266 230.632 61.0789C230.658 60.4147 230.413 60.1263 229.723 60.1351C228.377 60.1613 227.03 60.1263 225.684 60.1351C224.915 60.1351 224.574 59.7767 224.574 59.0077C224.574 57.8978 224.513 56.7879 224.521 55.678C224.53 54.5332 224.775 54.3059 225.938 54.2885C227.161 54.271 228.394 54.2622 229.618 54.2885C230.37 54.3059 230.676 53.9913 230.632 53.2397C230.588 52.5668 230.623 51.8939 230.632 51.221C230.641 50.0412 230.553 49.9188 229.356 49.8751C228.158 49.8314 226.96 49.8751 225.763 49.8489C224.854 49.8227 224.574 49.4906 224.574 48.5992C224.574 47.6378 224.574 46.6678 224.548 45.7065C224.513 44.5616 224.81 44.2208 225.946 44.2033C227.205 44.1946 228.464 44.1683 229.723 44.2033C230.413 44.2208 230.667 43.9499 230.641 43.2769C230.606 42.4904 230.606 41.6951 230.658 40.9086C230.711 40.1133 230.405 39.8249 229.6 39.8336C226.646 39.8686 223.691 39.8336 220.736 39.8511C219.626 39.8511 219.53 39.956 219.53 41.0571C219.53 44.7364 219.53 48.4244 219.53 52.1036H219.503ZM201.512 51.9725C201.512 54.1312 201.512 56.2985 201.512 58.4571C201.521 60.1788 201.556 61.9004 201.573 63.622C201.573 64.1027 201.748 64.3998 202.29 64.3998C205.271 64.3998 208.252 64.4173 211.225 64.3824C211.469 64.3824 211.907 63.9804 211.924 63.7444C212.003 62.7306 211.985 61.6994 211.924 60.6856C211.907 60.4672 211.522 60.1263 211.286 60.1088C210.298 60.0389 209.301 60.0564 208.314 60.0651C206.731 60.0739 206.53 59.8729 206.53 58.2474C206.53 52.6717 206.53 47.096 206.53 41.5116C206.53 41.2232 206.521 40.9261 206.504 40.6377C206.478 40.0696 206.189 39.7987 205.604 39.8074C204.642 39.8249 203.672 39.7987 202.71 39.8074C201.582 39.8249 201.521 39.8948 201.521 41.0222C201.521 44.6752 201.521 48.3195 201.521 51.9725H201.512ZM190.943 52.191H190.952C190.952 50.8452 190.952 49.4993 190.952 48.1535C190.952 45.8987 190.952 43.6527 190.952 41.398C190.952 39.8249 190.943 39.8162 189.335 39.7899C188.513 39.7725 187.7 39.8074 186.878 39.7987C186.187 39.7987 185.89 40.0871 185.899 40.8037C185.916 48.3719 185.916 55.9489 185.899 63.5172C185.899 64.1726 186.17 64.4086 186.782 64.3998C187.717 64.3824 188.653 64.3998 189.588 64.3998C190.864 64.3911 190.943 64.3212 190.943 63.0627C190.943 59.4359 190.943 55.8178 190.943 52.191Z" fill="#885A40"/>
<path d="M124.607 0.00880155C165.083 0.00880155 205.559 0.00880155 246.035 0.00880155C246.708 0.00880155 247.381 0.0524981 248.054 0.00880155C248.762 -0.0436343 248.981 0.270981 248.981 0.926429C248.963 3.00638 248.981 5.0776 248.981 7.15756C248.981 10.5222 248.963 13.8781 248.998 17.2427C248.998 18.0293 248.727 18.3351 247.975 18.2215C245.93 17.9156 243.884 17.6098 241.838 17.3039C240.597 17.1204 239.364 16.8931 238.123 16.7446C236.182 16.5086 234.233 16.3513 232.292 16.1153C230.089 15.8532 227.904 15.4774 225.701 15.2676C221.312 14.8394 216.924 14.4461 212.526 14.1053C205.891 13.5984 199.247 13.1178 192.603 12.6983C189.954 12.5322 187.288 12.5322 184.622 12.4973C176.317 12.3837 168.012 12.1302 159.716 12.2176C152.591 12.2963 145.466 12.7682 138.341 13.0915C134.836 13.2489 131.339 13.4324 127.842 13.6858C125.079 13.8868 122.317 14.2364 119.554 14.4898C116.766 14.752 113.96 14.9355 111.18 15.2414C107.648 15.6347 104.116 16.1153 100.584 16.5698C97.6032 16.9543 94.6222 17.3039 91.6499 17.7409C88.9398 18.1341 86.2385 18.6148 83.5372 19.0518C82.4445 19.2265 81.3517 19.3838 80.259 19.5674C77.8986 19.9519 75.5383 20.3102 73.1866 20.7472C71.0099 21.1579 68.8506 21.6735 66.6825 22.1105C64.8292 22.4863 62.9584 22.8009 61.1051 23.1854C58.9109 23.6399 56.7341 24.1468 54.5486 24.6187C53.552 24.8372 52.5554 25.0207 51.5588 25.2304C50.536 25.4402 49.5044 25.6412 48.4903 25.8859C46.6283 26.3316 44.7662 26.8123 42.9042 27.2842C41.2169 27.7124 39.5297 28.1494 37.8425 28.5776C36.2077 28.9884 34.573 29.3904 32.947 29.8186C31.4521 30.2119 29.9659 30.6226 28.4798 31.0333C26.88 31.4703 25.2714 31.8811 23.6891 32.353C21.6522 32.956 19.6328 33.6027 17.5959 34.2232C15.8475 34.7563 14.0816 35.2719 12.3332 35.805C10.917 36.2332 9.49201 36.6615 8.09328 37.1246C5.90777 37.8413 3.73974 38.6191 1.55423 39.3182C0.251661 39.7377 0.015625 39.5192 0.015625 38.1471C0.0243671 26.0694 0.0331091 14.0004 0.0418512 1.92271C0.0418512 1.72171 0.0418512 1.51196 0.0418512 1.31096C0.0680773 0.0612375 0.12053 0.00880155 1.34442 0.00880155C42.4321 0.00880155 83.5197 0.00880155 124.616 0.00880155H124.607Z" fill="#885A40"/>
<path d="M96.7753 57.8017C96.7753 52.2785 96.7753 46.7552 96.7753 41.2233C96.7753 39.7638 97.1075 39.3793 98.5587 39.3705C101.688 39.3443 104.818 39.3006 107.948 39.3705C111.104 39.4404 113.997 40.3056 116.209 42.7177C117.992 44.6665 119.094 46.9562 119.155 49.6392C119.199 51.4133 119.304 53.2223 119.05 54.9702C118.7 57.3735 117.643 59.5321 115.781 61.1926C115.3 61.6208 115.204 61.9529 115.483 62.5996C117.188 66.4624 118.823 70.3514 120.484 74.2229C120.982 75.3765 120.676 75.9183 119.452 75.9358C117.52 75.962 115.588 75.9707 113.665 75.9533C112.153 75.9445 111.96 75.7523 111.427 74.3627C110.256 71.3214 109.058 68.2976 107.86 65.2738C107.519 64.4261 106.767 64.6621 106.112 64.6796C105.421 64.7058 105.351 65.2389 105.351 65.7458C105.343 68.4025 105.351 71.068 105.351 73.7247C105.351 75.7697 105.176 75.9358 103.166 75.9445C101.793 75.9445 100.421 75.9445 99.0395 75.962C96.9764 75.9795 96.7578 75.7697 96.7578 73.751C96.7578 68.4287 96.7578 63.1065 96.7578 57.793L96.7753 57.8017ZM105.369 51.4308C105.369 52.7154 105.334 54.0001 105.395 55.2761C105.412 55.6082 105.683 56.1762 105.919 56.2199C107.126 56.4471 108.341 56.3335 109.303 55.4858C110.894 54.0963 110.937 52.2086 110.701 50.3296C110.317 47.1922 108.673 46.5892 106.479 46.6504C105.701 46.6766 105.316 46.9999 105.351 47.8302C105.395 49.0275 105.36 50.2247 105.36 51.422L105.369 51.4308Z" fill="#F2D5C0"/>
<path d="M53.5643 64.8368C52.9437 66.1826 52.4104 67.3362 51.8859 68.4898C50.898 70.6571 49.9102 72.8245 48.9485 75.0093C48.6601 75.6648 48.153 75.9357 47.5061 75.9444C45.5741 75.9706 43.6421 75.9794 41.7189 75.9444C40.5474 75.9269 40.2764 75.5075 40.7572 74.45C41.6402 72.5186 42.5843 70.6134 43.5022 68.6908C45.2244 65.0989 46.9991 61.5246 48.6163 57.8803C48.8436 57.3734 48.4328 56.4995 48.1443 55.8702C46.5182 52.2959 44.831 48.7477 43.1788 45.1821C42.4794 43.6789 41.7626 42.1845 41.1069 40.6638C40.7747 39.8948 40.9845 39.5277 41.8063 39.5015C43.8257 39.4578 45.8364 39.4666 47.8558 39.5015C48.6163 39.5102 49.1409 39.8686 49.4643 40.6201C50.592 43.2944 51.781 45.9511 52.9524 48.6166C53.1272 49.0099 53.3545 49.3682 53.678 49.9537C54.1413 48.9749 54.526 48.2059 54.8669 47.4281C55.8548 45.1646 56.8426 42.8924 57.8042 40.6201C58.119 39.886 58.6522 39.5015 59.4215 39.5015C61.406 39.484 63.3992 39.4666 65.3836 39.5015C66.2928 39.519 66.5463 39.921 66.1704 40.7512C65.0514 43.2419 63.8975 45.7239 62.7435 48.2059C61.371 51.1597 59.9373 54.0874 58.661 57.085C58.4599 57.5569 58.8445 58.3609 59.1156 58.929C61.5284 63.9978 63.9761 69.0491 66.4152 74.1004C66.5201 74.3102 66.555 74.5549 66.6687 74.7559C67.0621 75.4812 66.6687 75.9007 66.0393 75.9182C63.845 75.9706 61.6507 75.9706 59.4652 75.9007C58.4686 75.8658 58.2676 74.8957 57.9354 74.1791C56.6503 71.3475 55.4089 68.4985 54.1413 65.6583C54.0539 65.4573 53.8878 65.2825 53.5818 64.8542L53.5643 64.8368Z" fill="#F2D5C0"/>
<path d="M145.958 75.9357C145.084 75.9357 144.201 75.9794 143.327 75.9269C142.488 75.8745 141.841 75.6211 141.701 74.5811C141.561 73.5848 141.229 72.5973 140.888 71.6447C140.792 71.3738 140.363 71.0679 140.084 71.0591C138.449 71.0067 136.805 71.0067 135.171 71.0591C134.882 71.0679 134.436 71.3738 134.349 71.6359C134.069 72.4225 133.903 73.2614 133.737 74.0829C133.466 75.49 132.985 75.9357 131.56 75.9444C129.925 75.9619 128.282 75.9532 126.647 75.9269C125.615 75.9095 125.327 75.6211 125.537 74.651C125.939 72.772 126.42 70.9193 126.874 69.0491C127.276 67.4149 127.696 65.7719 128.098 64.1376C128.553 62.3024 129.007 60.4671 129.462 58.6318C129.855 57.0238 130.24 55.407 130.642 53.799C131.097 51.9638 131.586 50.1372 132.032 48.302C132.434 46.6677 132.801 45.0247 133.186 43.3818C133.405 42.4466 133.588 41.5028 133.842 40.5764C134.06 39.7899 134.594 39.3442 135.442 39.3442C136.849 39.3442 138.248 39.3267 139.655 39.3442C140.739 39.3617 141.15 39.7375 141.404 40.7862C142.252 44.2295 143.082 47.6815 143.948 51.1248C144.717 54.201 145.53 57.2685 146.29 60.3535C146.876 62.7306 147.392 65.1164 147.969 67.4935C148.537 69.8094 149.123 72.1166 149.744 74.415C149.997 75.3501 149.761 75.8395 148.764 75.9095C147.838 75.9794 146.894 75.9269 145.958 75.9269V75.9357ZM137.697 55.005C137.618 55.0225 137.54 55.0313 137.461 55.0487C137.409 55.1798 137.339 55.3022 137.304 55.442C137.006 56.8053 136.692 58.1599 136.421 59.5233C136.193 60.6594 135.992 61.8042 135.8 62.9491C135.704 63.5259 135.949 63.8317 136.561 63.8317C137.234 63.8317 137.898 63.8405 138.571 63.8492C139.262 63.858 139.524 63.5346 139.393 62.8617C138.956 60.5807 138.536 58.291 138.09 56.0101C138.02 55.6605 137.828 55.3459 137.688 55.0138L137.697 55.005Z" fill="#F2D5C0"/>
<path d="M77.0094 61.3062C77.0094 57.0414 77.0094 52.7679 77.0094 48.5031C77.0094 46.799 76.8958 46.6766 75.1561 46.6591C74.1595 46.6504 73.1629 46.6766 72.1751 46.6591C70.9949 46.6242 70.619 46.2309 70.6015 45.0511C70.584 43.8276 70.6015 42.5954 70.6015 41.3719C70.6015 39.6852 70.9337 39.3618 72.5947 39.3618C76.074 39.3618 79.5534 39.3618 83.0327 39.3618C85.2794 39.3618 87.5349 39.3618 89.7816 39.3618C90.8831 39.3618 91.3027 39.7726 91.3027 40.8912C91.3027 42.2633 91.3027 43.6353 91.3027 45.0161C91.3027 46.2746 90.9093 46.6679 89.6242 46.6854C88.514 46.7028 87.4038 46.6679 86.2935 46.6854C85.2357 46.7028 84.9909 46.9563 84.9909 47.9963C84.9909 56.4734 84.9909 64.9505 85.0084 73.4276C85.0084 75.8659 84.9035 75.9883 82.4557 75.9708C81.0483 75.962 79.6495 75.962 78.2421 75.9533C77.3766 75.9533 77.0007 75.5513 77.0094 74.6511C77.0357 70.2116 77.0182 65.7633 77.0182 61.3237C77.0182 61.3237 77.0182 61.3237 77.0094 61.3237V61.3062Z" fill="#F2D5C0"/>
<path d="M157.072 52.13C157.072 48.4158 157.072 44.7016 157.072 40.9961C157.072 39.86 157.125 39.7901 158.261 39.7989C161.12 39.8163 160.455 39.3794 161.461 42.1323C162.396 44.7016 163.366 47.2535 164.311 49.8228C164.73 50.9677 165.089 52.13 165.534 53.2661C165.657 53.5895 165.972 53.8429 166.19 54.1226C166.391 53.8692 166.671 53.6507 166.776 53.371C167.974 50.12 169.145 46.8602 170.325 43.5917C170.684 42.6042 171.007 41.6079 171.392 40.6291C171.593 40.1222 171.942 39.8076 172.572 39.7639C175.422 39.5629 175.448 39.5716 175.448 42.4294C175.448 49.0101 175.474 55.5821 175.448 62.1628C175.439 64.837 175.413 64.3301 173.193 64.4C172.581 64.4175 171.96 64.3388 171.348 64.4C170.43 64.4874 170.203 64.0854 170.229 63.2289C170.281 61.3325 170.246 59.4274 170.238 57.5309C170.238 57.295 170.246 57.059 170.194 56.8318C170.159 56.6832 170.002 56.4298 169.932 56.4385C169.766 56.4647 169.547 56.5783 169.477 56.7269C169.136 57.496 168.804 58.265 168.524 59.0603C167.974 60.5897 167.475 62.1453 166.907 63.6659C166.802 63.9543 166.4 64.3476 166.181 64.3214C165.849 64.2864 165.395 63.9805 165.281 63.6834C164.695 62.0754 164.197 60.4324 163.664 58.7981C163.471 58.2213 163.288 57.6271 163.008 57.094C162.868 56.823 162.518 56.6657 162.265 56.456C162.16 56.7269 161.968 57.0066 161.968 57.2775C161.942 59.2963 161.924 61.3063 161.968 63.3251C161.985 64.1029 161.749 64.4612 160.919 64.4175C160.018 64.3738 159.109 64.4175 158.2 64.4175C157.09 64.4175 157.055 64.3738 157.055 63.2901C157.055 59.5759 157.055 55.8617 157.055 52.1562L157.072 52.13Z" fill="#F2D5C0"/>
<path d="M219.515 52.0949C219.515 48.4157 219.515 44.7277 219.515 41.0485C219.515 39.9473 219.611 39.8424 220.721 39.8424C223.676 39.8337 226.631 39.8599 229.585 39.825C230.381 39.825 230.696 40.1046 230.643 40.8999C230.591 41.6864 230.599 42.4817 230.626 43.2682C230.652 43.9412 230.39 44.2121 229.708 44.1946C228.449 44.1596 227.19 44.1771 225.931 44.1946C224.795 44.2033 224.497 44.5529 224.532 45.6978C224.559 46.6591 224.55 47.6292 224.559 48.5905C224.559 49.4819 224.838 49.814 225.748 49.8402C226.945 49.8752 228.143 49.8227 229.341 49.8664C230.547 49.9101 230.626 50.0412 230.617 51.2123C230.617 51.8852 230.582 52.5581 230.617 53.231C230.661 53.9826 230.355 54.2972 229.603 54.2798C228.379 54.2535 227.146 54.2623 225.922 54.2798C224.76 54.2972 224.524 54.5157 224.506 55.6693C224.497 56.7792 224.559 57.8891 224.559 58.999C224.559 59.7681 224.9 60.1264 225.669 60.1264C227.015 60.1264 228.361 60.1613 229.708 60.1264C230.398 60.1176 230.643 60.406 230.617 61.0702C230.582 61.9179 230.599 62.7656 230.617 63.6133C230.626 64.1639 230.381 64.4086 229.83 64.4086C226.674 64.4086 223.51 64.4086 220.354 64.4174C219.637 64.4174 219.488 64.0241 219.488 63.4036C219.497 59.637 219.488 55.8616 219.488 52.0949H219.515Z" fill="#F2D5C0"/>
<path d="M201.524 51.9637C201.524 48.3107 201.524 44.6664 201.524 41.0134C201.524 39.886 201.586 39.8249 202.713 39.7986C203.675 39.7812 204.645 39.8074 205.607 39.7986C206.193 39.7899 206.472 40.0608 206.507 40.6289C206.525 40.9173 206.534 41.2144 206.534 41.5028C206.534 47.0785 206.534 52.6542 206.534 58.2386C206.534 59.8641 206.743 60.0651 208.317 60.0564C209.305 60.0564 210.301 60.0301 211.289 60.1C211.525 60.1175 211.91 60.4584 211.927 60.6768C211.997 61.6906 212.006 62.7218 211.927 63.7356C211.91 63.9716 211.473 64.3648 211.228 64.3736C208.247 64.4173 205.266 64.391 202.294 64.391C201.752 64.391 201.586 64.0939 201.577 63.6132C201.559 61.8916 201.524 60.17 201.516 58.4483C201.507 56.2897 201.516 54.1224 201.516 51.9637H201.524Z" fill="#F2D5C0"/>
<path d="M190.954 52.1822C190.954 55.809 190.954 59.4271 190.954 63.0539C190.954 64.3037 190.876 64.3823 189.599 64.391C188.664 64.391 187.728 64.3823 186.793 64.391C186.172 64.3998 185.91 64.1638 185.91 63.5084C185.919 55.9401 185.919 48.3632 185.91 40.7949C185.91 40.0783 186.199 39.7812 186.889 39.7899C187.711 39.7899 188.524 39.7637 189.346 39.7812C190.954 39.8161 190.963 39.8249 190.963 41.3892C190.963 43.6439 190.963 45.8899 190.963 48.1447C190.963 49.4905 190.963 50.8364 190.963 52.1822H190.954Z" fill="#F2D5C0"/>
<path d="M105.366 51.4307C105.366 50.2335 105.401 49.0362 105.358 47.8389C105.323 47.0087 105.707 46.6766 106.485 46.6591C108.68 46.5979 110.323 47.2009 110.708 50.3383C110.935 52.2173 110.891 54.105 109.309 55.4945C108.347 56.3422 107.132 56.4559 105.926 56.2286C105.69 56.1849 105.419 55.6256 105.401 55.2848C105.34 54.0001 105.375 52.7154 105.375 51.4395L105.366 51.4307Z" fill="#885A40"/>
<path d="M137.698 55.0051C137.837 55.3372 138.03 55.6605 138.1 56.0014C138.546 58.2823 138.965 60.572 139.402 62.853C139.533 63.5259 139.271 63.858 138.581 63.8405C137.907 63.8318 137.243 63.8143 136.57 63.823C135.958 63.823 135.713 63.5172 135.809 62.9404C136.002 61.7955 136.203 60.6507 136.43 59.5146C136.71 58.1512 137.016 56.7966 137.313 55.4333C137.339 55.3022 137.418 55.1711 137.47 55.04C137.549 55.0226 137.628 55.0138 137.706 54.9963L137.698 55.0051Z" fill="#885A40"/>
</g>
<defs>
<clipPath id="clip0_2536_134">
<rect width="249" height="94" rx="8" fill="white"/>
</clipPath>
</defs>
</svg>
