<svg width="285" height="94" viewBox="0 0 285 94" fill="none" xmlns="http://www.w3.org/2000/svg">
<g clip-path="url(#clip0_2536_127)">
<path fill-rule="evenodd" clip-rule="evenodd" d="M238.113 0H47.1485C21.073 0 0 21.0067 0 47C0 72.9933 21.073 94 47.1485 94H238.113C263.927 94 285 72.9933 285 47C285 21.0067 263.927 0 238.113 0ZM238.113 89.8039H47.1485C23.4435 89.8039 4.21809 70.639 4.21809 47.0087C4.21809 23.3784 23.4435 4.20481 47.1485 4.20481H238.113C261.818 4.20481 281.052 23.3697 281.052 47.0087C281.052 70.6477 261.827 89.8039 238.113 89.8039Z" fill="#885A40"/>
<path fill-rule="evenodd" clip-rule="evenodd" d="M222.311 52.7773H216.254V60.657H219.94C223.104 60.657 227.575 60.9176 227.845 56.7215C228.106 53.3073 225.213 52.786 222.311 52.786V52.7773Z" fill="#885A40"/>
<path fill-rule="evenodd" clip-rule="evenodd" d="M223.104 36.4966H216.516V45.1668H222.573C226.259 45.1668 229.423 44.3762 229.423 40.7014C229.684 37.8084 226.259 36.4966 223.104 36.4966Z" fill="#885A40"/>
<path fill-rule="evenodd" clip-rule="evenodd" d="M238.111 8.40088H47.1468C25.8123 8.40088 8.42578 25.7327 8.42578 47C8.42578 68.2672 25.8123 85.599 47.1468 85.599H238.111C259.446 85.599 276.832 68.2672 276.832 47C276.832 25.7327 259.446 8.40088 238.111 8.40088ZM88.2383 68.2672H70.5903L70.3289 53.2985H57.4219L57.1604 68.2672H39.7739L37.1419 25.7327H57.9535L57.692 44.8976H70.0761L69.8147 25.7327H90.6263L88.2558 68.2672H88.2383ZM109.573 53.5678H97.1887V44.9062H109.573V53.5678ZM169.105 37.2872H137.757L137.496 44.9062H159.885L159.623 53.3072H137.234V60.3963H168.312L167.519 68.2759H118.793L116.946 25.7414H169.89L169.097 37.2959L169.105 37.2872ZM188.601 53.5678H175.955V44.9062H188.601V53.5678ZM249.711 37.2872C249.711 44.1157 246.818 47.7905 240.752 49.1024C248.395 49.8929 248.125 55.6702 247.34 59.3451C246.547 63.2805 243.915 68.2672 233.379 68.2672H198.606L195.974 25.7327H236.011C247.602 25.7327 249.972 33.0824 249.702 37.2872H249.711Z" fill="#885A40"/>
</g>
<defs>
<clipPath id="clip0_2536_127">
<rect width="285" height="94" fill="white"/>
</clipPath>
</defs>
</svg>
