<svg width="271" height="100" viewBox="0 0 271 100" fill="none" xmlns="http://www.w3.org/2000/svg">
<g clip-path="url(#clip0_2536_94)">
<path d="M138.797 41.8494C141.319 38.3304 144.053 36.563 147.009 36.563H147.768C147.981 36.563 148.203 36.6024 148.416 36.6735C148.629 36.6735 148.851 36.7129 149.064 36.7839C149.349 36.8549 149.609 36.9259 149.823 36.9969V45.3053L148.961 45.0923H148.203C147.989 45.0212 147.736 44.9818 147.444 44.9818H146.685C143.089 44.9818 140.528 46.6387 139.019 49.9447V65.9065H130.27V37.1074H138.916V41.8573" fill="#885A40"/>
<path fill-rule="evenodd" clip-rule="evenodd" d="M177.909 62.1272C176.503 63.5317 174.882 64.6047 173.049 65.3622C171.207 66.0092 169.263 66.4353 167.327 66.4353C165.39 66.4353 163.438 66.0013 161.604 65.2517C159.874 64.4943 158.143 63.4133 156.847 62.0168C155.44 60.6123 154.365 58.9948 153.717 57.1643C152.958 55.3259 152.531 53.3849 152.531 51.4518C152.531 49.5187 152.966 47.5699 153.717 45.7393C154.365 44.0114 155.448 42.2834 156.847 40.8869C158.245 39.4903 159.874 38.4094 161.604 37.6519C163.446 36.8945 165.39 36.5789 167.327 36.5789C169.263 36.5789 171.215 36.9024 173.049 37.6519C174.882 38.4015 176.511 39.4903 177.909 40.8869C178.558 41.6049 179.174 42.3623 179.751 43.1514C180.257 44.0114 180.691 44.8793 181.047 45.7393C181.403 46.6783 181.695 47.6093 181.909 48.5404C182.051 49.5503 182.122 50.5129 182.122 51.4518C182.122 55.6967 180.715 59.2552 177.909 62.1272ZM162.679 56.5173C162.822 56.5883 162.964 56.6988 163.114 56.8408C163.691 57.4168 164.379 57.8508 165.169 58.1348C165.959 58.4188 166.789 58.5293 167.651 58.4583C168.441 58.4583 169.231 58.2768 170.03 57.9139C170.749 57.5588 171.397 57.0854 171.974 56.5094C172.551 55.7914 173.017 55.0024 173.381 54.1345C173.665 53.2745 173.815 52.4065 173.815 51.5465C173.815 50.6076 173.673 49.7081 173.381 48.856C173.025 47.9959 172.551 47.2385 171.974 46.5915C171.832 46.4495 171.721 46.3074 171.65 46.1575C171.002 45.5815 170.283 45.1476 169.484 44.8635C168.694 44.5795 167.904 44.469 167.105 44.54C166.244 44.54 165.446 44.7215 164.726 45.0845C163.936 45.4395 163.248 45.9445 162.671 46.5915C162.095 47.2385 161.66 47.9959 161.375 48.856C161.02 49.716 160.83 50.6155 160.83 51.5465C160.83 52.4065 161.012 53.2745 161.375 54.1345C161.66 54.9945 162.095 55.7914 162.671 56.5094L162.679 56.5173Z" fill="#885A40"/>
<path fill-rule="evenodd" clip-rule="evenodd" d="M233.336 36.5709C237.438 36.5709 240.789 38.0463 243.381 40.9894C245.974 44.0113 247.27 47.6013 247.27 51.7752V52.4222C247.27 52.7063 247.23 52.9982 247.159 53.2823V53.9292H227.282C227.93 57.3062 230.127 59.0026 233.873 59.0026C236.537 59.0026 238.663 58.2452 240.251 56.7382L246.63 60.2966C246.274 60.7306 245.839 61.1566 245.333 61.5906C244.899 62.0246 244.472 62.4191 244.037 62.7741C243.531 63.2081 243.026 63.5631 242.528 63.8472C242.022 64.2022 241.484 64.5257 240.907 64.8177C238.821 65.8907 236.3 66.4352 233.344 66.4352C229.02 66.4352 225.496 65.0307 222.761 62.2297C220.097 59.4997 218.762 55.9334 218.762 51.5543C218.762 47.1753 220.169 43.6405 222.974 40.7684C223.622 40.1215 224.342 39.506 225.14 38.93C225.93 38.4251 226.8 37.9911 227.732 37.6361C228.594 37.281 229.495 36.9891 230.427 36.776C231.368 36.634 232.332 36.563 233.344 36.563M238.521 48.7612C238.521 48.4061 238.449 48.0826 238.307 47.7907C238.236 47.5067 238.094 47.1753 237.872 46.8202C237.73 46.5362 237.548 46.2758 237.327 46.0628C237.114 45.7787 236.892 45.5183 236.679 45.3053C236.466 45.0212 236.213 44.8003 235.92 44.6583C235.636 44.4453 235.343 44.2638 235.059 44.1139C234.774 44.0429 234.442 43.9719 234.087 43.9008C233.802 43.8298 233.47 43.7904 233.115 43.7904H232.142C231.858 43.8614 231.526 43.9719 231.17 44.1139C230.886 44.1849 230.593 44.3269 230.309 44.5478C230.024 44.6899 229.763 44.8713 229.55 45.0923C229.265 45.3053 229.005 45.5578 228.791 45.8497C228.578 46.1338 228.357 46.4257 228.143 46.7097C228.001 47.0648 227.859 47.4278 227.709 47.7828C227.566 48.0669 227.456 48.3982 227.384 48.7533H238.513L238.521 48.7612Z" fill="#885A40"/>
<path d="M267.696 36.571H268.454C268.668 36.571 268.889 36.6105 269.102 36.6815C269.316 36.6815 269.569 36.721 269.861 36.792C270.074 36.863 270.296 36.934 270.509 37.005V45.3134C270.225 45.2423 269.964 45.1713 269.75 45.1003H268.992C268.707 45.0293 268.415 44.9899 268.13 44.9899H267.371C263.846 44.9899 261.325 46.6468 259.808 49.9528V65.9146H251.059V37.1076H259.594V41.8575C262.044 38.3384 264.779 36.571 267.806 36.571" fill="#885A40"/>
<path d="M121.836 31.7186C121.291 35.711 119.781 41.6444 115.355 46.7099C114.999 47.065 114.675 47.3885 114.383 47.6804L126.697 65.9067H115.568L107.143 52.7459C106.566 53.0299 105.958 53.3219 105.302 53.6059C104.654 53.8189 104.006 54.0399 103.357 54.2529C102.638 54.4659 101.951 54.6474 101.303 54.7973C100.654 54.9472 99.9669 55.0814 99.2477 55.2313V65.9067H89.9531V27.6157H99.2477V46.8204C103.429 45.8814 106.701 44.0509 109.08 41.3209C112.209 37.7624 113.292 33.557 113.616 30.6455C113.687 30.4325 113.727 30.2116 113.727 29.9985V29.4541C113.798 29.2411 113.838 29.0201 113.838 28.8071V28.1601C113.948 20.6092 117.078 13.3818 122.484 8.20587C127.993 2.91157 135.24 -0.102478 142.907 9.41787e-05C150.47 0.110557 157.71 3.1246 163.108 8.52148C168.403 13.9184 171.43 21.1379 171.43 28.6888H163.108V27.8287C162.997 22.4318 160.729 17.2638 156.841 13.4844C152.841 9.705 147.657 7.66145 142.148 7.77191C136.742 7.88237 131.565 10.1469 127.779 14.1393C123.994 18.0212 121.947 23.3077 122.057 28.7045V30.2116C121.986 30.4246 121.947 30.6771 121.947 30.969C121.947 31.182 121.907 31.4345 121.836 31.7265" fill="#885A40"/>
<path fill-rule="evenodd" clip-rule="evenodd" d="M214.971 75.1855C214.758 81.8763 211.841 88.2358 206.973 92.8752C202.001 97.5146 195.52 100.103 188.715 99.9921C182.013 99.8817 175.532 97.0807 170.782 92.3387C166.024 87.5967 163.329 81.1189 163.219 74.4359H171.431C171.431 79.0753 173.375 83.4938 176.615 86.8392C179.966 90.1847 184.392 92.0152 189.15 92.0152C193.908 92.0152 198.334 90.1768 201.575 86.8392C204.926 83.4938 206.759 79.0753 206.759 74.4359V63.1056C206.253 63.4607 205.684 63.7842 205.028 64.0761C204.451 64.3601 203.843 64.6205 203.187 64.8335C202.539 65.0466 201.891 65.1886 201.243 65.2675C200.523 65.4095 199.836 65.4805 199.188 65.4805C195.663 65.4805 192.485 64.1155 189.68 61.3855C186.874 58.6556 185.467 55.2391 185.467 51.1362C185.467 47.0333 186.834 43.5853 189.569 40.7843C192.304 37.9833 195.513 36.5789 199.188 36.5789C199.907 36.5789 200.594 36.6499 201.243 36.7919C201.962 36.8629 202.649 37.0444 203.297 37.3363C203.874 37.5493 204.451 37.8807 205.028 38.3068C205.605 38.6619 206.143 39.0958 206.649 39.6008V37.1233H214.971V75.2012H214.979L214.971 75.1855ZM204.926 55.9808C205.503 55.3338 205.937 54.5763 206.222 53.7163C206.577 52.9273 206.767 52.0594 206.767 51.1283C206.767 50.2683 206.585 49.4004 206.222 48.5404C205.937 47.7513 205.503 46.9939 204.926 46.2759L204.815 46.1654C204.167 45.5894 203.448 45.1239 202.649 44.761C201.859 44.4769 201.029 44.327 200.168 44.327C199.306 44.327 198.476 44.5085 197.686 44.8714C196.896 45.1555 196.208 45.6289 195.631 46.2759C195.054 46.9229 194.588 47.6803 194.224 48.5404C193.94 49.4004 193.79 50.2683 193.79 51.1283C193.79 52.0673 193.932 52.9273 194.224 53.7163C194.58 54.5763 195.054 55.3338 195.631 55.9808L195.742 56.1938C196.319 56.7698 197.038 57.2038 197.907 57.4878C198.698 57.8429 199.528 58.0322 200.389 58.0322C201.25 57.9612 202.08 57.7797 202.871 57.4878C203.661 57.1327 204.349 56.6278 204.926 55.9808Z" fill="#885A40"/>
<path fill-rule="evenodd" clip-rule="evenodd" d="M221.347 87.8018C221.347 89.0958 220.588 90.1767 219.505 90.7133C218.32 91.2577 217.024 91.0368 216.044 90.1688C215.182 89.3088 214.858 88.0069 215.285 86.8234C215.72 85.6399 216.905 84.8824 218.091 84.772H218.201C218.557 84.772 218.96 84.843 219.387 84.985C219.742 85.127 220.066 85.3401 220.359 85.632C220.651 85.9239 220.865 86.2474 221.007 86.6025C221.149 86.9575 221.26 87.3599 221.331 87.786L221.347 87.8018ZM215.941 87.6992C215.87 88.0543 215.901 88.3778 216.051 88.6697C216.123 88.9538 216.265 89.2141 216.486 89.4272C216.7 89.6402 216.952 89.8217 217.245 89.9716C217.529 90.0426 217.822 90.1136 218.106 90.1846H218.217C218.502 90.1846 218.794 90.1136 219.079 89.9716C219.363 89.8296 219.624 89.6481 219.837 89.4272C220.051 89.2141 220.232 88.9616 220.383 88.6697C220.454 88.3857 220.493 88.0937 220.493 87.8097C220.493 87.1627 220.28 86.5157 219.845 86.0817C219.41 85.6478 218.873 85.4347 218.225 85.4347C217.577 85.4347 217.039 85.6478 216.605 86.0817C216.17 86.5157 215.957 87.1548 215.957 87.8097V87.6992H215.949H215.941ZM217.774 89.2141H217.016V86.1922H218.201C218.272 86.1212 218.343 86.1212 218.415 86.1922H218.739C218.81 86.1922 218.881 86.2316 218.952 86.3027C219.094 86.3027 219.205 86.3421 219.276 86.4131C219.276 86.4131 219.316 86.4526 219.387 86.5236C219.387 86.5946 219.426 86.6341 219.497 86.6341V87.281C219.426 87.3521 219.387 87.4231 219.387 87.4941C219.316 87.5651 219.244 87.6045 219.173 87.6045C219.102 87.6756 219.031 87.715 218.96 87.715C219.031 87.786 219.071 87.857 219.071 87.928C219.142 87.928 219.213 87.9675 219.284 88.0385C219.355 88.1095 219.395 88.1805 219.395 88.2515C219.466 88.3225 219.505 88.3936 219.505 88.4646V88.8985C219.576 88.9695 219.616 89.009 219.616 89.009C219.616 89.08 219.655 89.151 219.727 89.222H218.968C218.897 89.151 218.857 89.08 218.857 89.009C218.857 89.009 218.818 88.9695 218.747 88.8985V88.4725C218.636 88.149 218.423 88.0385 218.098 88.0385H217.774V89.222V89.2141ZM217.774 87.4862H218.098C218.533 87.4862 218.747 87.3757 218.747 87.0522C218.747 86.7287 218.636 86.6183 218.201 86.6183H217.767V87.4783L217.774 87.4862Z" fill="#885A40"/>
<path d="M64.8997 66.5616C67.5842 66.5616 69.7604 64.3396 69.7604 61.5987C69.7604 58.8577 67.5842 56.6357 64.8997 56.6357C62.2153 56.6357 60.0391 58.8577 60.0391 61.5987C60.0391 64.3396 62.2153 66.5616 64.8997 66.5616Z" fill="#885A40"/>
<path d="M24.0588 29.1304V28.5939C24.1299 28.5229 24.1694 28.4519 24.1694 28.3808C24.2406 28.3098 24.3117 28.2704 24.3828 28.2704C24.3828 28.1994 24.4223 28.1284 24.4935 28.0574C24.5646 27.9863 24.6357 27.9469 24.7069 27.9469C24.778 27.9469 24.8491 27.9074 24.9203 27.8364H38.7514C38.8225 27.9074 38.9332 27.9469 39.0755 27.9469C39.1466 28.0179 39.2177 28.0889 39.2889 28.1599C39.36 28.2309 39.3995 28.3019 39.3995 28.373C39.4706 28.515 39.5102 28.6254 39.5102 28.6965C39.5813 28.7675 39.6208 28.8779 39.6208 29.02C39.6208 29.091 39.5813 29.162 39.5102 29.233C39.5102 29.375 39.4706 29.4855 39.3995 29.5565L32.5867 41.5259C32.5155 41.6679 32.4049 41.7784 32.2626 41.8494C32.1915 41.9204 32.0808 41.9914 31.9386 42.0624C31.7963 42.1334 31.6541 42.1334 31.5039 42.0624C31.3616 42.0624 31.2194 42.0229 31.0692 41.9519H30.9585V41.8415H30.8479C29.9864 41.0525 29.1565 40.1845 28.3662 39.2535C27.647 38.3935 26.9989 37.4151 26.4219 36.342C25.845 35.3321 25.347 34.259 24.9124 33.1071C24.5567 31.9551 24.2959 30.811 24.1536 29.6512C24.0825 29.5091 24.043 29.3277 24.043 29.1067V29.1225L24.0588 29.1304ZM45.5642 46.4967C44.7739 46.5677 43.9835 46.6071 43.1853 46.6071C42.3238 46.6071 41.4939 46.5361 40.7036 46.3941C39.9132 46.2521 39.1229 46.0706 38.3246 45.8497C37.5343 45.6366 36.7755 45.3447 36.0563 44.9897C35.9852 44.9897 35.9141 44.9502 35.8429 44.8792C35.7718 44.8792 35.7007 44.8397 35.6295 44.7687C35.5584 44.6977 35.5189 44.6267 35.5189 44.5557C35.4477 44.4847 35.4082 44.4137 35.4082 44.3427C35.3371 44.2716 35.2976 44.2006 35.2976 44.1296V43.9166C35.2976 43.8456 35.3371 43.7351 35.4082 43.5931C35.4082 43.5221 35.4477 43.4511 35.5189 43.3801L43.4066 29.5723C43.5489 29.3592 43.6911 29.2172 43.8413 29.1383C43.9835 29.0673 44.1653 29.0278 44.3866 29.0278C44.6079 29.0278 44.7818 29.0673 44.932 29.1383C45.1454 29.2093 45.2876 29.3513 45.3667 29.5723L53.0331 42.9461C53.1042 43.0881 53.1753 43.2301 53.2465 43.3801C53.2465 43.5221 53.207 43.7036 53.1358 43.9245C53.1358 44.0665 53.0647 44.177 52.9224 44.248C52.8513 44.39 52.7406 44.5005 52.5984 44.5715C52.0214 44.8555 51.4445 45.1159 50.8675 45.3289C50.3617 45.542 49.7926 45.7234 49.1366 45.8734C48.5597 46.0154 47.9827 46.1574 47.4058 46.3073C46.8288 46.4572 46.2202 46.5203 45.5642 46.5203V46.4967ZM59.0714 39.364L58.6367 39.7979C58.5655 39.9399 58.4549 40.082 58.3126 40.2319L57.8779 40.6658L57.4432 41.0998L57.3326 41.2103C57.2615 41.2813 57.1903 41.3207 57.1192 41.3207C56.9769 41.3207 56.8663 41.3602 56.7952 41.4312H56.5818C56.5106 41.3602 56.4395 41.3207 56.3684 41.3207C56.2972 41.2497 56.2261 41.2103 56.155 41.2103L55.9416 40.9972L55.7282 40.7842L49.35 29.5644C49.2789 29.4934 49.2394 29.3829 49.2394 29.2409C49.1683 29.1699 49.1287 29.0989 49.1287 29.0278C49.1287 28.8858 49.1683 28.7754 49.2394 28.7043C49.2394 28.5623 49.2789 28.4519 49.35 28.3808C49.35 28.3098 49.3896 28.2388 49.4607 28.1678C49.5318 28.0968 49.6029 28.0258 49.6741 27.9548C49.8163 27.9548 49.927 27.9153 49.9981 27.8443H62.6359C62.707 27.9153 62.7781 27.9548 62.8492 27.9548C62.9204 27.9548 62.9915 27.9942 63.0626 28.0652C63.1338 28.1363 63.1733 28.2073 63.1733 28.2783C63.2444 28.2783 63.3156 28.3177 63.3867 28.3887V28.6018C63.4578 28.6728 63.4973 28.7832 63.4973 28.9253V29.1383C63.3551 30.0772 63.1733 30.9767 62.952 31.8289C62.6675 32.7678 62.3355 33.6673 61.9799 34.5194C61.6242 35.3794 61.1895 36.2473 60.6837 37.1074C60.1779 37.8964 59.6404 38.6538 59.0635 39.3719L59.0714 39.364Z" fill="#885A40"/>
<path d="M75.5992 27.8286C74.8405 43.4669 62.7402 56.6277 46.8541 58.0322C45.8425 58.1742 44.8783 58.2452 43.9377 58.2452C27.7276 58.2452 13.7937 45.7314 12.2762 29.1226C11.6282 21.4692 7.41558 17.0428 0.5 16.5062V8.30835C11.7388 8.85277 19.3025 16.5062 20.3774 28.3652C21.5629 41.4155 33.1257 51.1204 46.0954 49.9369C57.761 48.8638 66.6208 39.2615 67.4823 27.8207H75.5913L75.5992 27.8286Z" fill="#885A40"/>
<path d="M29.2453 61.5987C29.2453 63.6501 28.0598 65.378 26.2183 66.1276C24.3768 66.8772 22.2191 66.4511 20.8123 65.0546C19.4055 63.658 19.0814 61.4961 19.8402 59.6577C20.5989 57.8193 22.3219 56.6357 24.3768 56.6357C25.0249 56.6357 25.6413 56.7778 26.2183 57.0697C26.8664 57.2827 27.4038 57.6457 27.8385 58.1428C28.2732 58.5767 28.6289 59.1133 28.9134 59.7602C29.1268 60.3362 29.2374 60.9438 29.2374 61.5987H29.2453Z" fill="#885A40"/>
</g>
<defs>
<clipPath id="clip0_2536_94">
<rect width="270" height="100" fill="white" transform="translate(0.5)"/>
</clipPath>
</defs>
</svg>
