<svg width="269" height="64" viewBox="0 0 269 64" fill="none" xmlns="http://www.w3.org/2000/svg">
<g clip-path="url(#clip0_2536_77)">
<path d="M163.219 9.93945H155.82V16.0057H163.219V9.93945Z" fill="#885A40"/>
<path d="M163.219 20.3917V48.7899H155.82V20.3843L163.219 20.3917Z" fill="#885A40"/>
<path d="M153.216 20.3545V48.7824H145.63L145.653 46.3515C145.653 46.3515 145.682 46.0987 145.54 46.2251C142.476 48.6412 140.518 49.4887 137.544 49.4887C134.345 49.4887 129.838 47.4815 128.246 43.4001C128.194 43.2812 127.641 42.0843 127.649 40.5975V20.3545H135.145V39.2371C135.145 39.408 135.13 39.5865 135.331 40.1961C136.191 42.7608 138.321 43.1102 140.01 43.1102C140.189 43.1102 141.116 43.0582 141.609 42.9392C144.135 42.3519 145.585 39.9507 145.585 37.9733V20.3545H153.223" fill="#885A40"/>
<path d="M215.173 9.93945V16.3848H202.752V48.79H194.478V16.4591H182.543V9.93945H215.173Z" fill="#885A40"/>
<path d="M165.855 9.93945H173.381V30.5244L183.463 20.3546H192.589L181.722 30.9556L193.635 48.79H184.368L176.52 36.0033L173.374 38.9844V48.79H165.855V9.93945Z" fill="#885A40"/>
<path d="M220.99 19.6409C221.17 19.6409 221.954 19.6409 222.5 19.6409L222.53 19.6557V25.9747C221.917 25.9896 220.983 26.049 220.803 26.049C220.624 26.049 220.504 26.0713 219.54 26.168C217.044 26.4282 213.838 29.8925 213.83 32.2045C213.83 32.3531 213.845 32.5613 213.845 32.7397V48.7825H206.387V20.362H213.89V23.3356C216.013 20.6445 218.666 19.6409 220.99 19.6409Z" fill="#885A40"/>
<path d="M223.664 9.93945H231.048V15.9982H223.656L223.664 9.93945Z" fill="#885A40"/>
<path d="M231.048 20.362V48.7677H223.664L223.656 20.3472L231.048 20.362Z" fill="#885A40"/>
<path d="M265.697 42.2554C263.896 42.2554 262.379 43.6604 262.379 45.5041C262.379 47.3477 263.896 48.7974 265.697 48.7974C267.498 48.7974 269.001 47.3849 269.001 45.5041C269.001 43.6232 267.491 42.2554 265.697 42.2554ZM265.697 48.3216C264.158 48.3216 262.977 47.1173 262.977 45.5189C262.977 43.9206 264.158 42.746 265.697 42.746C267.237 42.746 268.403 43.9503 268.403 45.5189C268.403 47.0875 267.214 48.3216 265.697 48.3216Z" fill="#885A40"/>
<path d="M266.234 45.7493C266.81 45.6824 267.25 45.3999 267.25 44.7085C267.25 43.9726 266.817 43.6157 265.905 43.6157H264.418V47.4368H265.016V45.7939H265.651L266.705 47.4368H267.348L266.242 45.7493H266.234ZM265.636 45.3107H265.008V44.0989H265.801C266.204 44.0989 266.645 44.1733 266.645 44.6862C266.645 45.2884 266.152 45.3107 265.629 45.3107H265.636Z" fill="#885A40"/>
<path fill-rule="evenodd" clip-rule="evenodd" d="M107.187 6.92116C119.1 6.90629 126.469 17.76 126.469 28.1083C126.469 32.2416 125.057 38.4491 121.335 42.5155L125.55 46.6861L121.103 51.0945L116.641 46.6489C113.375 48.8048 110.416 49.4069 107.187 49.4069C97.5833 49.4069 88.0469 40.88 88.0469 28.138C88.0469 17.2471 96.0063 6.92859 107.194 6.92116M107.194 13.4855C114.862 13.4855 118.278 22.28 118.278 28.2718C118.278 30.844 117.725 34.6651 115.983 37.1184L115.797 37.0515L112.665 33.9143L108.248 38.3524C108.248 38.3524 111.544 41.5045 111.514 41.5491C110.595 42.4338 108.353 42.7534 106.993 42.7386C101.417 42.694 96.0213 36.4493 96.0213 28.1752C96.0213 22.3469 99.6684 13.4855 107.187 13.4855" fill="#885A40"/>
<path fill-rule="evenodd" clip-rule="evenodd" d="M250.367 18.8008C258.924 18.8008 262.728 28.0339 262.728 34.2414C262.728 43.0359 256.847 49.7489 250.27 49.7489C246.204 49.7489 243.222 47.8309 241.982 45.846L241.967 58.2386H234.022L233.992 20.3545H241.75L241.735 22.8672C244.112 19.9531 247.392 18.8008 250.367 18.8008ZM241.361 34.2042C241.361 29.0449 244.425 24.8596 248.207 24.8596C251.989 24.8596 255.053 29.0449 255.053 34.2042C255.053 39.3634 251.989 43.5488 248.207 43.5488C244.425 43.5488 241.361 39.3709 241.361 34.2042Z" fill="#885A40"/>
<path fill-rule="evenodd" clip-rule="evenodd" d="M7.99683 0H71.6427C76.1642 0 79.9833 3.46428 79.9833 7.95447V56.0455C79.9833 60.5432 76.508 64 71.9864 64H7.64557C3.46779 64 0 60.5432 0 56.0455V7.95447C0 3.80625 3.48273 0 7.99683 0Z" fill="#885A40"/>
<path fill-rule="evenodd" clip-rule="evenodd" d="M50.4253 59.3462L55.3953 54.2241H64.6701V22.6888H71.9794V15.2919L65.993 10.0806L65.836 17.1578H42.137C42.137 17.1578 46.7034 23.1571 45.7991 32.8214C44.9845 41.5342 36.4944 49.6522 29.1926 50.2172C21.6666 51.2282 15.7773 46.3068 15.7773 46.3068C17.4141 47.4963 28.4602 62.186 43.3328 52.5292L50.4253 59.3537M25.2614 43.2663C21.0837 41.9579 17.9223 36.3006 17.9223 29.5653C17.9223 22.83 21.831 15.8345 27.1224 15.8345C32.4137 15.8345 34.6558 20.8525 34.6558 20.8525C34.6558 20.8525 27.795 20.9418 24.5888 28.5914C21.3975 36.1742 25.2614 43.2737 25.2614 43.2737" fill="#68412D"/>
<path fill-rule="evenodd" clip-rule="evenodd" d="M27.638 37.49L32.1073 41.72C31.1357 42.5154 29.6933 43.8015 26.801 43.5636C21.1808 43.1027 17.855 35.9586 17.9297 29.424C17.997 22.9787 21.704 15.8568 27.1971 15.8568C32.6903 15.8568 36.7784 22.3468 36.8381 29.1787C36.8606 31.788 36.7036 33.1782 35.9563 35.5571L32.6379 32.3605L27.638 37.4826M49.7377 17.2247V48.8195H58.6837V17.2321H65.993V10.0954H41.6063V16.1096C38.2133 11.8796 33.2134 9.0918 27.1896 9.0918C16.0688 9.0918 8.90154 18.6149 8.66239 29.4091C8.40828 40.7089 16.0688 50.455 27.1896 50.455C30.9638 50.455 34.6484 49.1392 37.6079 47.0205L44.8126 53.9193L49.7377 48.8195L42.4882 41.8538C45.3581 38.1962 46.2176 34.9847 46.2176 29.4166C46.2176 22.7556 42.4957 17.2396 42.4957 17.2396H49.7377V17.2247Z" fill="#EED6C3"/>
</g>
<defs>
<clipPath id="clip0_2536_77">
<rect width="269" height="64" fill="white"/>
</clipPath>
</defs>
</svg>
