<svg width="321" height="58" viewBox="0 0 321 58" fill="none" xmlns="http://www.w3.org/2000/svg">
<g clip-path="url(#clip0_2536_173)">
<path d="M303.761 40.9273C305.186 42.2387 307.061 42.9486 308.994 42.8985C312.935 43.0656 316.268 39.9918 316.435 36.0327C316.443 35.8239 316.435 35.6067 316.435 35.3979C316.51 33.3181 315.727 31.3052 314.277 29.8268C312.91 28.4152 311.011 27.6301 309.044 27.6635C304.995 27.5465 301.62 30.7372 301.503 34.7965C301.503 34.997 301.503 35.2058 301.503 35.4063C301.395 37.4944 302.22 39.5157 303.761 40.9273ZM301.453 23.7545V27.3544C302.978 24.7819 306.178 23.2617 309.469 23.2617C312.535 23.2032 315.493 24.4227 317.643 26.6194C319.91 28.9498 321.118 32.107 320.993 35.3562C321.11 38.5719 319.901 41.6957 317.643 43.9927C315.493 46.181 312.527 47.3755 309.469 47.2919C306.119 47.2919 302.878 45.9138 301.453 43.3412V57.9915H296.97V23.7545H301.453ZM286.571 29.7349C285.13 28.3567 283.197 27.605 281.205 27.6635C279.197 27.6134 277.256 28.3567 275.789 29.7349C274.331 31.1715 273.548 33.1594 273.631 35.2142C273.548 37.3107 274.331 39.3403 275.789 40.8438C277.239 42.2554 279.189 43.0154 281.205 42.9653C283.213 43.0238 285.147 42.2554 286.571 40.8438C288.063 39.3654 288.871 37.3274 288.788 35.2225C288.871 33.1594 288.063 31.1632 286.571 29.7433V29.7349ZM272.623 26.5609C277.489 22.1508 284.888 22.1508 289.754 26.5609C292.088 28.8078 293.354 31.9483 293.237 35.1975C293.346 38.48 292.063 41.6623 289.688 43.9342C284.888 48.4112 277.456 48.4112 272.656 43.9342C270.306 41.6456 269.04 38.4717 269.173 35.1975C269.048 31.9483 270.323 28.8078 272.656 26.5609H272.623ZM248.992 46.7657H244.509V11.209H248.992V27.1957C249.659 25.876 250.775 24.8403 252.142 24.2891C253.525 23.6292 255.033 23.2784 256.566 23.2533C262.316 23.2533 265.924 27.0036 265.865 33.4685V46.7741H261.382V33.7775C261.382 30.0272 259.166 27.6635 255.966 27.6635C254.2 27.6384 252.475 28.2314 251.092 29.3423C249.659 30.4282 248.975 32.107 248.975 34.3789V46.7741H248.984L248.992 46.7657ZM221.87 36.9682C221.953 38.6053 222.72 40.1255 223.986 41.1612C225.419 42.4057 227.261 43.0572 229.152 42.9904C233.244 42.9904 235.552 40.8271 235.993 38.0123C236.235 34.6545 233.777 32.7669 230.236 31.9483L225.878 30.8625C220.37 29.4259 217.612 26.4691 217.612 21.9838C217.554 19.3109 218.753 16.7634 220.862 15.1263C223.02 13.3055 225.769 12.3449 228.594 12.4201C231.461 12.3199 234.26 13.3055 236.443 15.1848C238.51 16.9889 239.651 19.6367 239.543 22.3847H234.968C234.968 19.027 232.352 16.8135 228.569 16.8135C226.961 16.7885 225.386 17.2896 224.086 18.2502C222.895 19.0938 222.186 20.4803 222.211 21.9503C222.211 24.3225 223.836 25.9011 227.036 26.6862L231.461 27.7721C237.902 29.4008 241.151 33.101 240.518 38.4299C240.243 40.9273 238.993 43.2242 237.035 44.7945C234.802 46.5486 232.019 47.4423 229.186 47.3086C226.078 47.4089 223.053 46.3147 220.72 44.2516C218.579 42.4475 217.337 39.7997 217.32 37.0016H221.862L221.87 36.9682Z" fill="#815D44"/>
<path d="M17.1755 17.7992C16.4589 17.7241 15.8673 17.6155 15.2757 17.6155C5.92668 17.5236 -1.35589 26.1017 0.218942 35.3646C1.53547 43.1158 8.52641 48.7537 16.0673 48.1273C24.3998 47.434 30.3408 41.1529 30.3991 32.9257C30.4325 27.8975 30.4075 22.8776 30.4158 17.8494C30.4158 17.3733 30.4575 16.9055 30.4908 16.2206C34.0821 18.3923 37.6901 19.879 41.8813 19.6535V11.585C34.8903 10.8249 31.0907 6.87414 30.3075 0H22.1417C22.1417 0.651498 22.1417 1.22782 22.1417 1.8125C22.1417 11.8606 22.1417 21.9171 22.1417 31.9651C22.1417 32.6083 22.1333 33.2598 22.05 33.9029C21.5667 37.8453 17.8254 40.468 13.8259 39.6829C9.98459 38.9312 7.50985 35.0055 8.50142 31.2468C9.51798 27.3963 12.6177 25.5504 17.1838 26.1184V17.7909L17.1755 17.7992ZM105.508 30.1109C108.866 26.536 112.066 23.1198 115.332 19.6452C112.682 19.6452 110.016 19.6953 107.358 19.6201C106.225 19.5867 105.425 19.9291 104.633 20.7477C102.817 22.6437 100.892 24.4479 99.0087 26.2854C98.6087 26.6696 98.1921 27.0372 97.4588 27.7054V11.3762C95.0924 11.3762 92.9177 11.4597 90.7512 11.3427C89.393 11.2759 89.1014 11.7604 89.1097 13.0383C89.1597 23.7379 89.143 34.4291 89.143 45.1287C89.143 45.5631 89.193 45.9974 89.218 46.4735H97.5172C97.5172 44.1598 97.6838 41.9631 97.4672 39.7998C97.2505 37.5864 98.2754 36.2667 100.025 35.1642C100.259 35.4816 100.5 35.7906 100.717 36.108C102.817 39.2402 104.908 42.3808 107.033 45.5046C107.324 45.9306 107.774 46.532 108.166 46.5403C110.999 46.6322 113.84 46.5904 116.99 46.5904C112.982 40.8355 109.191 35.3897 105.516 30.1025L105.508 30.1109ZM200.123 19.6452C198.157 19.6452 196.065 19.8206 194.015 19.6034C191.566 19.3445 189.791 20.1463 188.199 21.9922C186.716 23.7212 184.975 25.2247 183.333 26.8116C183.117 27.0204 182.85 27.1791 182.4 27.5049C182.4 26.7532 182.4 26.2687 182.4 25.7843C182.4 21.4577 182.408 17.131 182.392 12.8044C182.392 12.2198 182.65 11.4012 181.583 11.4012C179.117 11.4012 176.651 11.4012 174.093 11.4012V46.5069H182.4C182.4 44.1264 182.575 41.8295 182.35 39.5743C182.125 37.3525 183.358 36.2583 184.941 35.089C187.091 38.3131 189.249 41.4035 191.241 44.5942C192.174 46.0976 193.216 46.8327 195.049 46.6489C196.815 46.4735 198.615 46.6155 200.406 46.6071C200.806 46.6071 201.206 46.5236 201.79 46.4651C197.832 40.7771 194.024 35.3062 190.424 30.1359C193.766 26.5193 196.924 23.0948 200.115 19.6368L200.123 19.6452ZM156.344 46.6155C164.135 46.6489 170.635 40.3344 170.676 32.6751C170.718 24.498 164.485 18.0331 156.469 17.9412C148.695 17.8494 142.121 24.2892 142.079 32.0236C142.038 40.2509 148.229 46.5821 156.344 46.6155ZM135.588 46.5487V19.0187H142.896C143.679 16.538 144.437 14.1408 145.229 11.6434H118.69V19.119H127.206V46.5403H135.588V46.5487ZM58.3796 19.0187V46.4986H66.7537V19.0605H73.4947C74.2862 16.5631 75.0612 14.1325 75.8444 11.6852H49.8888V19.0187H58.3796ZM77.5859 22.7105V46.5153H85.7017V22.7022H77.5859V22.7105ZM85.8434 15.7696C85.8434 13.3223 84.0852 11.5599 81.6605 11.5599C79.3107 11.5599 77.4109 13.4559 77.4443 15.7863C77.4776 18.0749 79.3191 19.9208 81.5938 19.9459C83.9852 19.9709 85.8434 18.1417 85.8351 15.7696H85.8434Z" fill="#815D44"/>
<path d="M17.1741 17.7992V26.1267C12.6079 25.5587 9.50826 27.4046 8.4917 31.2551C7.50014 35.0138 9.97488 38.9395 13.8161 39.6912C17.8074 40.4763 21.5487 37.8536 22.0403 33.9112C22.1153 33.2681 22.132 32.6249 22.132 31.9734C22.132 21.9253 22.132 11.8689 22.132 1.8208C22.132 1.23612 22.132 0.651446 22.132 0.00830078H30.2978C31.0894 6.88244 34.8806 10.8332 41.8716 11.5933V19.6702C37.6803 19.8957 34.0724 18.4089 30.4811 16.2373C30.4478 16.9222 30.4061 17.3899 30.4061 17.866C30.4061 22.8942 30.4228 27.9141 30.3894 32.9423C30.3394 41.1696 24.3984 47.4507 16.0576 48.144C8.52503 48.7704 1.52576 43.1324 0.209227 35.3813C-1.35728 26.1183 5.91697 17.5403 15.2743 17.6321C15.8659 17.6321 16.4492 17.7407 17.1741 17.8159V17.7992Z" fill="#815D44"/>
<path d="M105.516 30.1026C109.191 35.3898 112.982 40.8356 116.99 46.5905C113.84 46.5905 111.007 46.6323 108.166 46.5404C107.774 46.5321 107.324 45.9223 107.033 45.5047C104.908 42.3892 102.816 39.2403 100.717 36.1081C100.5 35.7824 100.258 35.4817 100.025 35.1643C98.2751 36.2668 97.2502 37.5865 97.4668 39.7999C97.6752 41.9632 97.5168 44.16 97.5168 46.4736H89.2177C89.1927 45.9975 89.1427 45.5632 89.1427 45.1289C89.1427 34.4293 89.1594 23.738 89.1094 13.0384C89.1094 11.7605 89.3927 11.2677 90.7509 11.3428C92.9173 11.4514 95.1004 11.3763 97.4585 11.3763V27.7055C98.1918 27.0373 98.6084 26.6781 99.0083 26.2855C100.891 24.448 102.816 22.6438 104.633 20.7478C105.416 19.9293 106.216 19.5868 107.357 19.6202C110.016 19.6954 112.682 19.6453 115.332 19.6453C112.065 23.1199 108.866 26.5361 105.508 30.111L105.516 30.1026Z" fill="#815D44"/>
<path d="M200.132 19.6368C196.94 23.0948 193.782 26.5193 190.441 30.136C194.041 35.3062 197.849 40.7854 201.807 46.4652C201.223 46.532 200.823 46.6072 200.423 46.6072C198.64 46.6239 196.832 46.4735 195.066 46.6489C193.232 46.8327 192.191 46.0977 191.258 44.5942C189.274 41.3952 187.108 38.3047 184.958 35.089C183.375 36.2584 182.142 37.3526 182.367 39.5743C182.6 41.8295 182.417 44.1181 182.417 46.5069H174.109V11.3845C176.667 11.3845 179.134 11.3845 181.6 11.3845C182.667 11.3845 182.4 12.2114 182.409 12.7877C182.425 17.1144 182.417 21.441 182.417 25.7676C182.417 26.252 182.417 26.7365 182.417 27.4882C182.858 27.1625 183.133 27.0038 183.35 26.7949C184.992 25.1996 186.733 23.7045 188.216 21.9755C189.799 20.1213 191.574 19.3278 194.032 19.5867C196.082 19.8039 198.174 19.6285 200.14 19.6285L200.132 19.6368Z" fill="#815D44"/>
<path d="M156.343 46.6072C148.228 46.5654 142.045 40.2342 142.078 32.0153C142.112 24.2809 148.694 17.8494 156.468 17.9329C164.484 18.0248 170.717 24.4897 170.675 32.6668C170.634 40.3261 164.143 46.6406 156.343 46.6072ZM163.259 32.4329C163.293 28.4989 160.243 25.3416 156.418 25.3333C152.594 25.3333 149.486 28.3987 149.469 32.1824C149.461 36.1331 152.477 39.257 156.318 39.282C160.126 39.2987 163.234 36.2417 163.259 32.4329Z" fill="#815D44"/>
<path d="M135.586 46.5402H127.203V19.1188H118.688V11.6433H145.226C144.435 14.1407 143.677 16.5379 142.893 19.0186H135.586V46.5402Z" fill="#815D44"/>
<path d="M58.3775 19.0188H49.8867V11.6853H75.8424C75.0674 14.1326 74.2925 16.5632 73.4926 19.0606H66.7516V46.4987H58.3775V19.0188Z" fill="#815D44"/>
<path d="M77.5859 22.7021H85.7018V46.5069H77.5859V22.7021Z" fill="#815D44"/>
<path d="M85.8404 15.7695C85.8404 18.1333 83.9906 19.9625 81.5992 19.9458C79.3245 19.9207 77.4746 18.0748 77.4497 15.7862C77.4163 13.4559 79.3161 11.5515 81.6659 11.5598C84.0906 11.5598 85.8404 13.3222 85.8488 15.7695H85.8404Z" fill="#815D44"/>
<path d="M163.259 32.4246C163.234 36.2334 160.126 39.2987 156.318 39.2737C152.477 39.257 149.46 36.1248 149.469 32.174C149.477 28.3903 152.593 25.325 156.418 25.325C160.243 25.325 163.292 28.4906 163.259 32.4246Z" fill="#EED6C3"/>
</g>
<defs>
<clipPath id="clip0_2536_173">
<rect width="321" height="58" fill="white"/>
</clipPath>
</defs>
</svg>
