<svg width="293" height="72" viewBox="0 0 293 72" fill="none" xmlns="http://www.w3.org/2000/svg">
<path d="M169.759 37.6466C169.759 30.6603 166.795 24.4875 156.769 24.4875C151.625 24.4875 147.539 25.9665 145.323 27.2611L146.947 32.8661C148.987 31.5751 152.241 30.512 155.313 30.512C160.389 30.5048 161.221 33.4013 161.221 35.2636V35.712C150.141 35.6939 143.137 39.5559 143.137 47.421C143.137 52.2268 146.693 56.7325 152.908 56.7325C156.701 56.7325 159.905 55.1884 161.819 52.7512H162.006C162.006 52.7512 163.268 58.0777 170.247 56.0418C169.892 53.8107 169.759 51.4602 169.759 48.6035V37.6466ZM161.493 45.0235C161.493 45.5876 161.447 46.1734 161.282 46.6761C160.644 48.8277 158.443 50.6285 155.704 50.6285C153.392 50.6285 151.578 49.3086 151.578 46.5423C151.578 42.3114 156.21 41.147 161.493 41.176" fill="#885A40"/>
<path d="M0.125 14.9819C0.125 14.9819 7.36219 44.8511 8.51288 49.6895C9.86782 55.3451 12.2946 57.4352 19.2989 56.043L23.8226 37.5212C24.9661 32.9324 25.7438 29.6417 26.4823 24.9661H26.6077C27.1203 29.6887 27.8588 32.9324 28.7944 37.5357C28.7944 37.5357 30.6403 45.9504 31.5975 50.3585C32.5294 54.7665 35.1533 57.5473 42.025 56.043L52.7931 14.9819H44.1004L40.4048 32.7443C39.4262 37.8901 38.5372 41.9437 37.8454 46.6592H37.7199C37.0963 41.9944 36.304 38.107 35.286 33.0662L31.4577 14.9819H22.3888L18.3023 32.6033C17.1373 37.9841 16.0476 42.2981 15.3629 46.8653H15.2447C14.5385 42.5802 13.5815 37.1235 12.567 31.9452C12.567 31.9452 10.1402 19.3285 9.28355 14.9819" fill="#885A40"/>
<path d="M77.0164 37.6466C77.0164 30.6603 74.0447 24.4875 64.0187 24.4875C58.8892 24.4875 54.7957 25.9665 52.5805 27.2611L54.2042 32.8661C56.2367 31.5751 59.488 30.512 62.5706 30.512C67.6463 30.5048 68.4779 33.4013 68.4779 35.2636V35.712C57.3981 35.6939 50.3867 39.5559 50.3867 47.421C50.3867 52.2268 53.957 56.7325 60.1439 56.7325C63.9721 56.7325 67.1482 55.1884 69.0623 52.7512H69.2557C69.2557 52.7512 70.5247 58.0777 77.4967 56.0418C77.1383 53.8107 77.0164 51.4602 77.0164 48.6035V37.6466ZM68.7433 45.0235C68.7433 45.5876 68.6967 46.1734 68.539 46.6761C67.8936 48.8277 65.6928 50.6285 62.947 50.6285C60.6493 50.6285 58.8283 49.3086 58.8283 46.5423C58.8283 42.3114 63.4594 41.147 68.7433 41.176" fill="#885A40"/>
<path d="M81.5273 14.9819V56.0285H89.8005V47.3245V14.9819H81.5273Z" fill="#885A40"/>
<path d="M195.148 14.9819V45.267C195.148 49.4472 195.926 52.3618 197.6 54.1482C199.07 55.7139 201.475 56.7337 204.339 56.7337C206.798 56.7337 209.203 56.2563 210.34 55.8405L210.239 49.3206C209.39 49.5195 208.418 49.6895 207.085 49.6895C204.26 49.6895 203.328 47.885 203.328 44.1315V32.5382H210.533V24.6948H203.328V14.9819" fill="#885A40"/>
<path d="M173.766 25.2V56.0419H182.318V40.2467C182.318 39.3969 182.372 38.6628 182.505 37.983C183.143 34.6525 185.648 32.5443 189.258 32.5443C190.265 32.5443 190.95 32.6564 191.71 32.7758V24.6901C191.072 24.5744 190.638 24.5129 189.853 24.5129C186.652 24.5129 183.024 26.5633 181.494 31.0292H181.282V25.2" fill="#885A40"/>
<path d="M94.6055 25.2V56.0419H102.939V37.9396C102.939 37.0898 103.033 36.2219 103.33 35.4372C104.008 33.6039 105.689 31.4812 108.388 31.4812C111.743 31.4812 113.328 34.3379 113.328 38.4603V56.0419H121.64V37.7226C121.64 36.9235 121.751 35.9435 121.984 35.2347C122.651 33.1555 124.472 31.4812 126.988 31.4812C130.379 31.4812 132.021 34.2765 132.021 39.1365V56.0419H140.326V37.8564C140.326 28.3026 135.509 24.5129 130.039 24.5129C127.634 24.5129 125.72 25.1096 123.999 26.18C122.543 27.0804 121.267 28.3496 120.124 30.0094H119.999C118.683 26.6898 115.593 24.5129 111.557 24.5129C106.381 24.5129 104.029 27.1491 102.646 29.3766H102.52V25.2" fill="#885A40"/>
<path d="M255.295 23.8158C256.93 23.8158 258.306 22.9551 258.485 21.8486L260.105 3.33407C260.105 1.50069 257.966 0 255.295 0C252.61 0 250.484 1.50069 250.484 3.33407L252.119 21.8486C252.291 22.9551 253.66 23.8158 255.295 23.8158Z" fill="#885A40"/>
<path d="M245.352 29.6092C246.162 28.1627 246.116 26.5572 245.241 25.8412L230.114 15.17C228.541 14.2443 226.185 15.3472 224.838 17.6832C223.494 20.0156 223.766 22.6337 225.307 23.5413L242.054 31.3738C243.126 31.7788 244.528 31.0267 245.352 29.5947" fill="#885A40"/>
<path d="M265.233 29.5939C266.089 31.0259 267.491 31.778 268.534 31.3947L285.281 23.5405C286.837 22.6148 287.07 20.022 285.754 17.6896C284.41 15.3536 282.041 14.2579 280.471 15.1656L265.34 25.8259C264.501 26.5527 264.441 28.1655 265.251 29.6084" fill="#885A40"/>
<path d="M255.295 46.9426C256.93 46.9426 258.306 47.8033 258.485 48.9098L260.105 67.4243C260.105 69.2577 257.966 70.7439 255.295 70.7439C252.61 70.7439 250.484 69.2577 250.484 67.4243L252.119 48.9098C252.291 47.8033 253.66 46.9426 255.295 46.9426Z" fill="#885A40"/>
<path d="M265.233 41.1656C266.089 39.73 267.491 38.9634 268.534 39.3793L285.281 47.219C286.837 48.1267 287.07 50.7411 285.754 53.0771C284.41 55.3951 282.041 56.498 280.471 55.5903L265.34 44.9155C264.501 44.1959 264.441 42.5904 265.251 41.1656" fill="#885A40"/>
<path d="M245.352 41.1497C246.162 42.5926 246.116 44.1945 245.241 44.9177L230.114 55.5744C228.541 56.5002 226.185 55.3936 224.838 53.0757C223.494 50.7433 223.766 48.1252 225.307 47.2176L242.054 39.3778C243.126 38.9656 244.528 39.725 245.352 41.1497Z" fill="#885A40"/>
<path d="M290.183 53.9656H290.391C290.674 53.9656 290.789 54.056 290.821 54.2838C290.882 54.5369 290.914 54.7069 290.975 54.7792H291.513C291.466 54.725 291.405 54.5876 291.373 54.2693C291.312 53.9945 291.172 53.839 290.975 53.7848V53.7342C291.248 53.6727 291.405 53.4883 291.405 53.2604C291.405 53.0543 291.312 52.9061 291.219 52.812C291.04 52.7253 290.868 52.6566 290.488 52.6566C290.151 52.6566 289.903 52.6855 289.706 52.7325V54.7792H290.183V53.9656ZM290.198 53.0326L290.441 53.0001C290.728 53.0001 290.882 53.1339 290.882 53.3219C290.882 53.5317 290.674 53.6293 290.409 53.6293H290.198V53.0326ZM290.502 51.644C289.327 51.644 288.395 52.5698 288.395 53.7052C288.395 54.8696 289.327 55.7954 290.502 55.7954C291.692 55.7954 292.596 54.8696 292.596 53.7052C292.596 52.5698 291.692 51.644 290.502 51.644ZM290.502 52.0599C291.405 52.0599 292.076 52.7976 292.076 53.7052C292.076 54.6201 291.405 55.3795 290.502 55.365C289.599 55.365 288.914 54.6201 288.914 53.7052C288.914 52.7976 289.599 52.0599 290.488 52.0599" fill="#885A40"/>
</svg>
